<?xml version="1.0" encoding="utf-8"?>
<!-- Generator: Adobe Illustrator 24.1.1, SVG Export Plug-In . SVG Version: 6.00 Build 0)  -->
<svg version="1.1" id="Layer_1" xmlns="http://www.w3.org/2000/svg" xmlns:xlink="http://www.w3.org/1999/xlink" x="0px" y="0px"
	 viewBox="0 0 566.9 708.7" style="enable-background:new 0 0 566.9 708.7;" xml:space="preserve">
<style type="text/css">
	.st0{fill:#D8292A;}
	.st1{fill-rule:evenodd;clip-rule:evenodd;fill:#ECA733;}
	.st2{fill-rule:evenodd;clip-rule:evenodd;fill:#0B77B5;}
	.st3{fill-rule:evenodd;clip-rule:evenodd;fill:#1F1A17;}
</style>
<g id="Warstwa_x0020_1">
	<path id="c" class="st0" d="M357.4,376.2c12.5-10,21-19.6,27.6-34.4c6.3-14.2,10.3-31.5,11.9-51.9l0.1-1.4l-1-1
		c-17.9-18.6-26.9-36.8-26.9-54.4c0-17.6,8.9-35,26.8-52.1l2.7-2.6l-3.1-2.1c-37.7-25.8-75.1-38.6-112-38.6c0,22.7,0,47.7,0,51.2
		c13.5,0,27.1,2.7,40.6,7.9c-6.3,19.5-8,38.3-5,56.5c3.1,18.5,11.1,36.3,23.9,53.2c-2.6,8.4-5.7,15.4-9.4,21c-3.8,5.7-8,9.2-13,12.7
		c-24.8,20.5-49.6,20.5-74.4,0c-4.5-3.1-9.2-6.9-13-12.7c-3.6-5.6-6.8-12.6-9.4-21c12.8-16.9,20.8-34.7,23.9-53.2
		c3-18.1,1.4-37-5-56.5c13.5-5.3,27.1-7.9,40.6-7.9c0-3.5,0-28.5,0-51.2c-36.9,0-74.2,12.9-112,38.6l-3.1,2.1l2.7,2.6
		c17.9,17.1,26.8,34.5,26.8,52.1c0,17.6-9,35.8-26.9,54.4l-1,1l0.1,1.4c1.6,20.4,5.6,37.7,11.9,51.9c6.4,14.5,13.6,24.4,26.4,33.6
		C265.1,418.4,321.4,401.2,357.4,376.2L357.4,376.2z"/>
	<path id="p" class="st1" d="M370,112.5l30.6-35.2C321.9,35,244.2,35,167.4,77.3l30.6,35.2C254.7,82.1,312.4,82.1,370,112.5
		L370,112.5z"/>
	<path id="n" class="st2" d="M357.9,480.2c-49.4,18.4-99.3,18.2-148.9,0C113.9,439,64.3,369.4,60.1,271.3h45
		c5,76.6,41.6,130.8,109.7,162.8c22.9,11.8,45.8,15.4,68.7,15.4c22.9,0,45.8-3.6,68.7-15.4c68.1-31.9,104.7-86.2,109.7-162.8h45
		C502.6,369.4,453,439,357.9,480.2L357.9,480.2z"/>
	<polygon id="k11" class="st3" points="70.5,667.2 70.5,540.2 100.5,540.2 100.5,667.2 	"/>
	<polygon id="k12" class="st3" points="102.3,601.3 149,540.2 183.6,540.2 136.3,600.2 189.5,667.2 153.9,667 	"/>
	<polygon id="m" class="st3" points="283.5,667 297.9,667.2 331.4,573.7 331.4,667.2 359.1,667 359.1,540.2 316.4,540.2 
		283.5,630.6 250.6,540.2 207.8,540.2 207.8,667 235.6,667.2 235.6,573.7 269,667.2 	"/>
	<polygon id="k21" class="st3" points="386,667.2 386,540.2 416,540.2 416,667.2 	"/>
	<polygon id="k22" class="st3" points="417.8,601.3 464.5,540.2 499.1,540.2 451.8,600.2 505,667.2 469.4,667 	"/>
</g>
</svg>
