<?xml version="1.0" encoding="utf-8"?>
<!-- Generator: Adobe Illustrator 24.1.1, SVG Export Plug-In . SVG Version: 6.00 Build 0)  -->
<svg version="1.1" id="Warstwa_1" xmlns="http://www.w3.org/2000/svg" xmlns:xlink="http://www.w3.org/1999/xlink" x="0px" y="0px"
	 viewBox="0 0 425.2 245.7" style="enable-background:new 0 0 425.2 245.7;" xml:space="preserve">
<style type="text/css">
	.st0{fill-rule:evenodd;clip-rule:evenodd;stroke:#000000;stroke-width:3.700000e-03;stroke-miterlimit:22.9256;}
	.st1{fill-rule:evenodd;clip-rule:evenodd;fill:#ED1A3B;stroke:#000000;stroke-width:3.700000e-03;stroke-miterlimit:22.9256;}
	.st2{fill-rule:evenodd;clip-rule:evenodd;fill:#F3C727;stroke:#000000;stroke-width:3.700000e-03;stroke-miterlimit:22.9256;}
	.st3{fill-rule:evenodd;clip-rule:evenodd;fill:#4870B7;stroke:#000000;stroke-width:3.700000e-03;stroke-miterlimit:22.9256;}
	.st4{fill-rule:evenodd;clip-rule:evenodd;fill:#FFFFFF;stroke:#000000;stroke-width:3.700000e-03;stroke-miterlimit:22.9256;}
	.st5{fill-rule:evenodd;clip-rule:evenodd;fill:#F3C727;}
	.st6{fill-rule:evenodd;clip-rule:evenodd;fill:#4870B7;}
	.st7{fill:#FFFFFF;}
</style>
<g>
	<g>
		<path class="st0" d="M247.2,61.5c14.2,3,25.9,8.1,33,15.2l-0.2,0.8c-7.3,2.4-11,14.1-11.5,28.9c0,0-0.6,7.8,0.7,15.8
			c1.3,8.1,4.3,15.7,11.1,16.3l0.5,0.5c1.6,47.8-41.1,71-68,70.5h-0.1h-0.1c-27,0.5-69.7-22.7-68-70.5l0.5-0.5
			c6.8-0.5,9.8-8.2,11.1-16.3c1.2-8,0.7-15.8,0.7-15.8c-0.5-14.8-4.2-26.5-11.5-28.9l-0.2-0.8c6.9-7,18.3-12,32.1-15l-1.4-4
			l-0.1,0.1c-1.6,0.6-2.2-1.6-2.4-2.5c-0.2-0.7-0.1-1.5,0.7-1.8l0.4-0.2l-3.8-11c-0.7,0.2-1.4-0.4-1.7-1L168,39
			c-0.2-0.7,0-1.3,0.6-1.7l-3.8-10.9v-0.2c0.1-0.4,0.5-0.5,0.8-0.3c2.4,1.4,5.2,2.4,6.3,5.2c0.1,0.3,0.2,0.6,0.2,0.9
			c3.3-4.3,9.1-8,16-10.6c0.2-0.3,0.4-0.7,0.7-1c0.2-0.3,0.6-0.3,0.9-0.1l0.4,0.4c6.4-2.2,13.6-3.5,20.8-3.8
			c-1.6-0.7-2.7-2.4-2.7-4.2c0-1.8,1-3.4,2.6-4.2l0.6-3l-2.9,0.6l-0.3-0.3V2.5l0.3-0.3l2.9,0.6l-0.7-2.4L211,0h3.9l0.3,0.4l-0.7,2.4
			l2.9-0.6l0.3,0.3v3.4l-0.3,0.3l-2.9-0.6l0.7,3.1c1.4,0.8,2.3,2.3,2.3,4.1c0,1.9-1.1,3.5-2.7,4.2c7.1,0.3,14.2,1.4,20.6,3.5
			l0.5-0.4c0,0,0,0,0.1-0.1c0.3-0.2,0.6-0.1,0.8,0.2c0.2,0.3,0.4,0.7,0.7,1c6.7,2.4,12.4,5.9,16,10.5c0-0.1,0.1-0.3,0.1-0.4
			c1.2-2.8,3.9-3.8,6.3-5.2c0,0,0,0,0.1,0c0.3-0.1,0.6,0,0.7,0.3v0.2c-1.3,3.8-2.6,7.5-3.8,10.9c0.6,0.3,0.9,1,0.6,1.7l-0.7,2.2
			c-0.2,0.7-1,1.3-1.8,1c-1.6,4.3-3.1,8-4.3,11l0.3,0.1c1.5,0.6,0.3,2.4,0,3.4c-0.3,0.8-1.3,1.1-2,0.8l-0.1,0
			C248.2,59.4,247.6,60.8,247.2,61.5L247.2,61.5z M239.6,26.1c0.2,0.8,0.2,1.6,0.2,2.4c-0.2,2-2.8,2.4-3.1,3.6
			c0.3,0,1.4-1.4,3.6-1.1c2.2,0.3,4.8,1.9,3.5,5.6c-0.5,1.2-2.4,4.1-2.6,4.9c-0.1,0.9,0,1.1,0.3,1.4c0.7,0.2,1,1.5-0.3,2
			c-1.2,0.4-4.3-1.4-3.5-3.4c0.6-1.5,0.6-2.4,0.4-2.9c-0.2-0.3-0.5-0.5-1-0.2c-1,0.8-1.1,2.6-1.3,3.8c-0.4,3,0.9,6.2,6.1,7.1
			c4,0.3,7.5-1.7,8.5-4.2c0.4-1.1,1.2-2.7,0.7-3.9c-0.3-0.4-0.6-0.5-1-0.2c-0.4,0.3-0.9,1.2-1,2.8c-0.2,2.1-3.7,2.6-4.7,1.7
			c-1.1-1,0-2,0.6-2c1.3-0.1,1-2.6,1-3.4c0-1-0.1-2.1,0-3.1c0.4-2.2,1.5-3.3,2.9-3.7C246.9,30.7,243.6,28.2,239.6,26.1L239.6,26.1z
			 M213.9,19.3c1.4,1.8,3.3,4.6,3.4,7.2c0,1.8-1.7,2.3-2.5,3.5c-0.1,0.3-0.2,0.4-0.2,0.4c0.1,0,0.3-0.3,0.4-0.3l0.1-0.1
			c0.7-0.7,1.9-1,2.9-1c2.3,0,5,1.3,4.2,5.2c-0.3,1.3-1.9,4.4-1.9,5.1c0,0.9,0.1,1.1,0.5,1.3c0.5,0.2,1.4,1.7-0.1,2.1
			c-1.1,0.4-4.4-0.9-3.8-3c0.4-1.6,0.3-2.5,0-2.9c-0.2-0.3-0.6-0.4-1-0.1c-0.9,0.9-0.7,2.7-0.7,3.9c0,3,2.1,6.1,7.4,6.4
			c4.7,0,7.8-2.6,8.1-5.4c0.2-1.2,0.5-2.9-0.2-3.9c-0.3-0.3-0.7-0.3-1,0c-0.3,0.4-0.6,1.3-0.4,2.9c0.3,2.2-2.8,3.4-4.2,2.6
			c-1.5-0.8-0.4-1.9,0.2-2c1.3-0.4,0.4-2.8,0.2-3.5c-0.3-1-0.6-2-0.7-3c-0.4-5.3,5.6-5.7,7.6-3.3l0.1,0.1c0.1,0.1,0.2,0.3,0.4,0.3
			c0.2-0.9-2.4-2.2-2.1-4.2c0.3-1.5,1.1-3,2.2-4.3C226.9,20.9,220.2,19.4,213.9,19.3L213.9,19.3z M192.4,23c1.2,1.3,2.1,2.8,2.4,4.5
			c0.3,1.8-1.4,2.5-2,3.7c-0.1,0.3-0.1,0.4-0.1,0.5c0.1,0,0.3-0.3,0.4-0.4l0.1-0.1c2-2.4,8-2.1,7.6,3.3c-0.1,1.3-1.3,4.5-1.2,5.3
			c0.1,0.9,0.3,1.1,0.7,1.3c0.6,0.1,1.7,1.2,0.2,2c-1.4,0.8-4.5-0.4-4.2-2.6c0.2-1.6,0-2.5-0.4-2.9c-0.3-0.3-0.6-0.3-1,0
			c-0.7,1-0.4,2.8-0.2,3.9c0.4,2.8,3.4,5.4,8.1,5.4c5.3-0.3,7.4-3.4,7.4-6.4c0-1.2,0.1-2.9-0.7-3.9c-0.4-0.3-0.7-0.3-1,0.1
			c-0.3,0.4-0.4,1.3,0,2.9c0.6,2.1-2.4,3.6-3.8,3c-1.5-0.5-0.7-1.9-0.1-2.1c0.4-0.2,0.5-0.4,0.5-1.3c0-0.8-1.6-3.9-1.9-5.1
			c-0.8-3.8,2-5.2,4.2-5.2c1,0,2.1,0.3,2.9,1l0.1,0.1c0.1,0.1,0.3,0.3,0.4,0.3c0-1-2.7-1.9-2.6-3.9c0.1-2.7,2-5.5,3.4-7.3
			C205.4,19.4,198.6,20.7,192.4,23L192.4,23z M176.4,33.2c1.4,0.3,2.7,1.4,3,3.8c0.2,1.3-0.2,4.7,0.1,5.4c0.3,0.8,0.5,1.1,1,1.1
			c0.6,0,1.7,0.9,0.7,2c-1,0.9-4.5,0.5-4.7-1.7c-0.2-1.6-0.6-2.4-1-2.8c-0.3-0.3-0.7-0.2-1,0.2c-0.5,1.1,0.3,2.8,0.7,3.9
			c0.9,2.5,4.5,4.5,8.5,4.2c5.2-0.9,6.5-4.1,6.1-7.1c-0.2-1.2-0.3-2.9-1.3-3.8c-0.5-0.3-0.8-0.2-1,0.2c-0.2,0.4-0.2,1.4,0.4,2.9
			c0.9,2.1-2.2,3.8-3.5,3.4c-1.3-0.5-1-1.8-0.3-2c1.1-0.6-0.4-2.8-0.7-3.5c-0.5-0.9-1.1-1.8-1.5-2.8c-1.7-4.8,3.3-6.8,6.3-5
			c0.2,0.1,0.5,0.4,0.7,0.5c-0.1-1-2.9-1.6-3.1-3.6c-0.1-0.9,0-1.8,0.3-2.6C182.2,27.9,178.9,30.3,176.4,33.2z"/>
		<path class="st1" d="M167.1,135.2h-13.3c-0.2,0-0.5,0.2-0.5,0.5v5.5c0,0.3,0.2,0.5,0.5,0.5h13.3c0.3,0,0.5-0.2,0.5-0.5v-5.5
			C167.6,135.4,167.3,135.2,167.1,135.2z"/>
		<path class="st1" d="M182,135.2c0.2,0,0.5,0.2,0.5,0.5v5.5c0,0.3-0.2,0.5-0.5,0.5h-1.2c-2.5-1.2-5.3-1.9-8.3-1.9l-0.2,0.1
			l-0.3,0.3v1.5h-3.2c-0.2,0-0.5-0.2-0.5-0.5v-5.5c0-0.3,0.2-0.5,0.5-0.5H182z"/>
		<path class="st1" d="M196.8,135.2h-13.3c-0.3,0-0.5,0.2-0.5,0.5v5.5c0,0.3,0.2,0.5,0.5,0.5h13.3c0.2,0,0.5-0.2,0.5-0.5v-5.5
			C197.3,135.4,197.1,135.2,196.8,135.2z"/>
		<path class="st1" d="M211.7,135.2c0.3,0,0.5,0.2,0.5,0.5v1.3c-5.2,0.1-10.1,1.9-13.9,4.8c-0.2-0.1-0.3-0.3-0.3-0.5v-5.5
			c0-0.3,0.2-0.5,0.5-0.5H211.7z"/>
		<path class="st1" d="M152.7,135.7c0-0.2-0.2-0.4-0.3-0.5c-1.7,2.2-3.9,3.9-7,4.2c0,0.8,0,1.6,0,2.4h6.8c0.2,0,0.5-0.2,0.5-0.5
			V135.7z"/>
		<path class="st1" d="M171.9,149.2h-10.6c-0.2,0-0.5-0.2-0.5-0.6v-5.7c0-0.3,0.2-0.6,0.5-0.6h10.7L171.9,149.2z"/>
		<path class="st1" d="M189.4,142.3c0.2,0,0.5,0.2,0.5,0.6v5.7c0,0.3-0.2,0.6-0.5,0.6h-0.8c-1.5-2.8-3.9-5.2-6.8-6.8H189.4z"/>
		<path class="st1" d="M192,149.2h-1c-0.2,0-0.5-0.2-0.5-0.6v-5.7c0-0.3,0.3-0.6,0.5-0.6h6.5C195.2,144.2,193.3,146.6,192,149.2z"/>
		<path class="st1" d="M145.5,142.3c-0.1,1,0.3,6.8,0.4,6.9l13.8-0.1c0.2,0,0.5-0.2,0.5-0.6v-5.7c0-0.3-0.2-0.6-0.5-0.6H145.5z"/>
		<path class="st1" d="M167.1,149.8h-13.3c-0.2,0-0.5,0.2-0.5,0.6v5.7c0,0.3,0.3,0.6,0.5,0.6h13.3c0.2,0,0.5-0.2,0.5-0.6v-5.7
			C167.6,150,167.3,149.8,167.1,149.8z"/>
		<path class="st1" d="M171.9,156.6h-3.2c-0.2,0-0.5-0.2-0.5-0.6v-5.7c0-0.3,0.2-0.6,0.5-0.6h3.2V156.6z"/>
		<path class="st1" d="M190.3,154c-0.3-1.5-0.8-2.9-1.4-4.3h2.8C191,151.1,190.6,152.5,190.3,154z"/>
		<path class="st1" d="M152.2,149.8h-6.3c0.3,2.3,0.7,4.6,1.1,6.8h5.2c0.2,0,0.5-0.2,0.5-0.6v-5.7
			C152.7,150,152.5,149.8,152.2,149.8z"/>
		<path class="st1" d="M167.1,164.6h-13.3c-0.2,0-0.5,0.2-0.5,0.6v5.7c0,0.3,0.3,0.6,0.5,0.6h13.3c0.2,0,0.5-0.2,0.5-0.6v-5.7
			C167.6,164.9,167.3,164.6,167.1,164.6z"/>
		<path class="st1" d="M171.8,171.5h-3.2c-0.2,0-0.5-0.2-0.5-0.6v-5.7c0-0.3,0.2-0.6,0.5-0.6h3.2V171.5z"/>
		<path class="st1" d="M152.3,171.4c0.2,0,0.3-0.3,0.3-0.5v-5.7c0-0.3-0.2-0.6-0.5-0.6h-2.9C150.2,167,151.2,169.3,152.3,171.4z"/>
		<path class="st1" d="M167.1,179.5h-10c1.7,2.4,3.7,4.7,5.7,6.8h4.2c0.2,0,0.5-0.2,0.5-0.6v-5.7
			C167.6,179.7,167.3,179.5,167.1,179.5z"/>
		<path class="st1" d="M171.8,186.3h-3.1c-0.2,0-0.5-0.2-0.5-0.6v-5.7c0-0.3,0.2-0.6,0.5-0.6h3.2L171.8,186.3z"/>
		<path class="st1" d="M171.8,164h-10.6c-0.2,0-0.5-0.2-0.5-0.6v-5.7c0-0.3,0.2-0.6,0.5-0.6h10.6L171.8,164z"/>
		<path class="st1" d="M159.7,157.2h-12.5c0.5,2.4,1.2,4.6,2,6.8h10.5c0.2,0,0.5-0.2,0.5-0.6v-5.7
			C160.1,157.4,159.9,157.2,159.7,157.2z"/>
		<path class="st1" d="M171.8,178.9h-10.6c-0.2,0-0.5-0.2-0.5-0.6v-5.7c0-0.3,0.2-0.6,0.5-0.6h10.6V178.9z"/>
		<path class="st1" d="M159.7,172.1h-7.1c1.3,2.4,2.7,4.7,4.2,6.8h2.9c0.2,0,0.5-0.2,0.5-0.6v-5.7
			C160.1,172.3,159.9,172.1,159.7,172.1z"/>
		<path class="st1" d="M171.8,194.2h-0.5c-2.7-2.1-5.6-4.8-8.1-7.4h8.6V194.2z"/>
		<path class="st1" d="M165.2,92.8c-1.2-3.4-2.2-6.9-4.5-9.8c1.9-1.3,4.2-2.3,6.8-3l1.4,7.1l0.3,0.2l3.6-0.5l0.3-0.3l-0.8-7.4
			c1.6-0.1,3.8-0.3,5.4-0.3c1.6,0,3.5,0.1,5,0.3l-0.8,7.4l0.2,0.3l3.5,0.5l0.3-0.2l1.4-7.1c2.5,0.7,4.8,1.6,6.8,3
			c-2.3,2.9-3.3,6.5-4.5,9.9c-3.2-1.4-7.9-2-12.3-2C173.2,91,168.4,91.5,165.2,92.8z"/>
		<path class="st1" d="M188.2,97.9c0,0.8,0,1.9,0,2.5c0,2,0,4.7,0,7.4c0,4.7,0,9.4,0.1,10.6h-21.9V97.9c0,0,0.1,0,0.1-0.1
			c1.5-0.9,6.3-1.5,10.9-1.5c4.6,0,9.2,0.6,10.7,1.5C188.2,97.8,188.2,97.8,188.2,97.9z"/>
		<path class="st1" d="M165,93.5c-0.8,0.4,0,1.9,0.5,1.7c2.7-1.2,7.4-1.8,11.8-1.9c4.4,0.1,9.1,0.6,11.8,1.9
			c0.5,0.2,1.3-1.3,0.5-1.7c-3.1-1.3-7.7-1.9-12.1-2C173,91.5,168.1,92.1,165,93.5z"/>
		<path class="st1" d="M188.4,97.3c0.5,0.3,1.2-1.3,0.5-1.7c-3.1-1.1-7.6-1.7-11.6-1.7c-4,0.1-8.4,0.7-11.6,1.7
			c-0.8,0.4,0,2,0.5,1.7c1.7-1,6.6-1.6,11.2-1.6C181.9,95.7,186.7,96.3,188.4,97.3z"/>
		<rect x="164.5" y="118.9" class="st1" width="25.6" height="11.6"/>
		<rect x="173.1" y="123" class="st0" width="7.9" height="4.9"/>
		<path class="st0" d="M174.3,110.5c0-1.1,0.7-2.1,1.7-2.5v-6.5h2.2v6.5c1,0.4,1.7,1.4,1.7,2.5c0,1.5-1.2,2.8-2.8,2.8
			C175.5,113.3,174.3,112.1,174.3,110.5z"/>
		<path class="st2" d="M174.7,140.6c8.1,1,14.5,7.2,15.2,15l0,0.2v8.1l-6.1-2.8c-0.5-0.2-0.3-0.8-0.1-0.7c0.6,0,0,0.3,0.6,0.4
			c0.6,0,1.4-0.2,1.7-1l0.1-0.9c-1.7,0.5-1.5-1.2-3.2-1.6c-0.8-0.2-2.9,0.5-1.5,2.7c-1-1-2.7-0.4-3.8-0.2c0.4,1.3,1.9,3.8,3.8,3.5
			c-0.7,0.7-0.5,2.1,0.2,2.9c1.2,1.5,2.5-0.4,3.8,1.9c0,0,0.5-1,0.3-1.6c-0.2-0.9-0.3-1.1-1.1-1.5c-0.7-0.3-0.6-0.1-0.9-0.6
			c-0.1-0.2-0.3-0.7,0.1-0.5l6.1,3v18.2l-6.1-2.8c-0.5-0.2-0.3-0.7-0.1-0.7c0.6,0,0,0.3,0.6,0.4c0.6,0.1,1.4-0.2,1.7-1l0.1-0.9
			c-1.7,0.5-1.5-1.2-3.2-1.6c-0.8-0.2-2.9,0.5-1.5,2.7c-1-1-2.7-0.4-3.8-0.2c0.4,1.3,1.9,3.8,3.8,3.5c-0.7,0.7-0.5,2.1,0.2,2.9
			c1.2,1.5,2.5-0.4,3.8,2c0,0,0.5-1,0.3-1.6c-0.2-0.9-0.3-1.1-1.1-1.5c-0.7-0.3-0.6-0.1-0.9-0.6c-0.1-0.2-0.3-0.7,0.1-0.5l6.1,3.1
			v16.2c-5.2-2-10.4-4.6-15.2-7.9V140.6z"/>
		<polygon class="st2" points="174.1,140.6 172.5,140.6 172.4,195 174.1,196.1 		"/>
		<path class="st1" d="M257.9,135.2h13.3c0.2,0,0.5,0.2,0.5,0.5v5.5c0,0.3-0.2,0.5-0.5,0.5h-13.3c-0.2,0-0.5-0.2-0.5-0.5v-5.5
			C257.4,135.4,257.7,135.2,257.9,135.2z"/>
		<path class="st1" d="M243,135.2c-0.2,0-0.5,0.2-0.5,0.5v5.5c0,0.3,0.2,0.5,0.5,0.5h1.2c2.5-1.2,5.3-1.9,8.3-1.9l0.3,0.1l0.3,0.3
			v1.5h3.2c0.3,0,0.5-0.2,0.5-0.5v-5.5c0-0.3-0.2-0.5-0.5-0.5H243z"/>
		<path class="st1" d="M228.2,135.2h13.3c0.2,0,0.5,0.2,0.5,0.5v5.5c0,0.3-0.2,0.5-0.5,0.5h-13.3c-0.3,0-0.5-0.2-0.5-0.5v-5.5
			C227.7,135.4,227.9,135.2,228.2,135.2z"/>
		<path class="st1" d="M213.3,135.2c-0.2,0-0.5,0.2-0.5,0.5v1.3c5.2,0.1,10,1.9,13.9,4.8c0.2-0.1,0.3-0.3,0.3-0.5v-5.5
			c0-0.3-0.2-0.5-0.5-0.5H213.3z"/>
		<path class="st1" d="M272.3,135.7c0-0.2,0-0.3,0.1-0.4c1.7,2.2,4,3.7,7.1,4c0,0.8,0,1.6,0,2.4h-6.8c-0.3,0-0.5-0.2-0.5-0.5V135.7z
			"/>
		<path class="st1" d="M253.1,149.2h10.6c0.2,0,0.5-0.2,0.5-0.6v-5.7c0-0.3-0.2-0.6-0.5-0.6h-10.6V149.2z"/>
		<path class="st1" d="M235.6,142.3c-0.2,0-0.5,0.2-0.5,0.6v5.7c0,0.3,0.3,0.6,0.5,0.6h0.8c1.6-2.8,3.9-5.2,6.8-6.8H235.6z"/>
		<path class="st1" d="M233,149.2h1c0.2,0,0.5-0.2,0.5-0.6v-5.7c0-0.3-0.2-0.6-0.5-0.6h-6.5C229.8,144.2,231.7,146.6,233,149.2z"/>
		<path class="st1" d="M279.5,142.3c0.1,1,0,2-0.1,3c-0.1,1.6-0.3,3.3-0.3,3.3c0,0.2,0,0.4-0.1,0.6l-13.7,0c-0.2,0-0.5-0.2-0.5-0.6
			v-5.7c0-0.3,0.3-0.6,0.5-0.6H279.5z"/>
		<path class="st1" d="M257.9,149.8h13.3c0.2,0,0.5,0.2,0.5,0.6v5.7c0,0.3-0.2,0.6-0.5,0.6h-13.3c-0.2,0-0.5-0.2-0.5-0.6v-5.7
			C257.4,150,257.7,149.8,257.9,149.8z"/>
		<path class="st1" d="M253.1,156.6h3.2c0.2,0,0.5-0.2,0.5-0.6v-5.7c0-0.3-0.3-0.6-0.5-0.6h-3.2L253.1,156.6z"/>
		<path class="st1" d="M234.7,154c0.3-1.5,0.8-2.9,1.4-4.3h-2.8C233.9,151.1,234.4,152.5,234.7,154z"/>
		<path class="st1" d="M272.8,149.8h6.3c-0.3,2.3-0.7,4.6-1.1,6.8h-5.2c-0.2,0-0.5-0.2-0.5-0.6v-5.7
			C272.3,150,272.5,149.8,272.8,149.8z"/>
		<path class="st1" d="M257.9,164.6h13.3c0.2,0,0.5,0.2,0.5,0.6v5.7c0,0.3-0.2,0.6-0.5,0.6h-13.3c-0.2,0-0.5-0.2-0.5-0.6v-5.7
			C257.4,164.9,257.7,164.6,257.9,164.6z"/>
		<path class="st1" d="M253.1,171.5h3.2c0.2,0,0.5-0.2,0.5-0.6v-5.7c0-0.3-0.3-0.6-0.5-0.6h-3.2V171.5z"/>
		<path class="st1" d="M272.6,171.4c-0.2,0-0.3-0.3-0.3-0.5v-5.7c0-0.3,0.3-0.6,0.5-0.6h2.9C274.8,167,273.7,169.3,272.6,171.4z"/>
		<path class="st1" d="M257.9,179.5h10c-1.7,2.4-3.7,4.7-5.7,6.8h-4.3c-0.2,0-0.5-0.2-0.5-0.6v-5.7
			C257.4,179.7,257.7,179.5,257.9,179.5z"/>
		<path class="st1" d="M253.2,186.3h3.1c0.2,0,0.5-0.2,0.5-0.6v-5.7c0-0.3-0.3-0.6-0.5-0.6h-3.1V186.3z"/>
		<path class="st1" d="M253.1,164h10.6c0.2,0,0.5-0.2,0.5-0.6v-5.7c0-0.3-0.2-0.6-0.5-0.6h-10.6V164z"/>
		<path class="st1" d="M265.3,157.2h12.5c-0.5,2.4-1.2,4.6-2,6.8h-10.5c-0.2,0-0.5-0.2-0.5-0.6v-5.7
			C264.8,157.4,265.1,157.2,265.3,157.2z"/>
		<path class="st1" d="M253.2,178.9h10.6c0.2,0,0.5-0.2,0.5-0.6v-5.7c0-0.3-0.2-0.6-0.5-0.6h-10.6L253.2,178.9z"/>
		<path class="st1" d="M265.3,172.1h7.1c-1.3,2.4-2.7,4.7-4.2,6.8h-2.9c-0.2,0-0.5-0.2-0.5-0.6v-5.7
			C264.8,172.3,265.1,172.1,265.3,172.1z"/>
		<path class="st1" d="M253.2,194.2h0.5c2.7-2.1,5.6-4.8,8.1-7.4h-8.6V194.2z"/>
		<path class="st1" d="M259.8,92.8c1.2-3.4,2.3-6.9,4.5-9.8c-2-1.3-4.3-2.3-6.8-3l-1.4,7.1l-0.3,0.2l-3.6-0.5l-0.3-0.3l0.8-7.4
			c-1.6-0.1-3.8-0.3-5.4-0.3c-1.6,0-3.5,0.1-5,0.3l0.8,7.4l-0.3,0.3l-3.5,0.5l-0.3-0.2l-1.4-7.1c-2.5,0.7-4.8,1.6-6.8,3
			c2.3,2.9,3.3,6.5,4.5,9.9c3.2-1.4,7.9-2,12.3-2C251.8,91,256.6,91.5,259.8,92.8z"/>
		<path class="st1" d="M236.7,97.9c0,0.8,0,1.9,0,2.5c0,2,0,4.7,0,7.4c0,4.7-0.1,9.4-0.1,10.6h21.9V97.9c0,0-0.1,0-0.1-0.1
			c-1.5-0.9-6.3-1.5-10.9-1.5c-4.6,0-9.2,0.6-10.7,1.5C236.8,97.8,236.8,97.8,236.7,97.9z"/>
		<path class="st1" d="M260,93.5c0.7,0.4,0,1.9-0.5,1.7c-2.7-1.2-7.4-1.8-11.8-1.9c-4.4,0.1-9.1,0.6-11.8,1.9
			c-0.5,0.2-1.3-1.3-0.5-1.7c3.1-1.3,7.7-1.9,12.2-2C252,91.5,256.9,92.1,260,93.5z"/>
		<path class="st1" d="M236.6,97.3c-0.5,0.3-1.2-1.3-0.5-1.7c3.2-1.1,7.6-1.7,11.6-1.7c4,0.1,8.4,0.7,11.6,1.7c0.7,0.4,0,2-0.5,1.7
			c-1.7-1-6.6-1.6-11.2-1.6C243,95.7,238.3,96.3,236.6,97.3z"/>
		<rect x="234.9" y="118.9" class="st1" width="25.6" height="11.6"/>
		<rect x="243.9" y="123" class="st0" width="7.9" height="4.9"/>
		<path class="st0" d="M250.7,110.5c0-1.1-0.7-2.1-1.7-2.5v-6.5h-2.2v6.5c-1,0.4-1.7,1.4-1.7,2.5c0,1.5,1.2,2.8,2.8,2.8
			C249.5,113.3,250.7,112.1,250.7,110.5z"/>
		<path class="st2" d="M250.2,140.6v55.9c-4.9,3.3-10.1,5.9-15.2,7.9v-16.2l6.1-3.1c0.4-0.2,0.3,0.3,0.1,0.5
			c-0.3,0.4-0.3,0.2-0.9,0.6c-0.9,0.4-0.9,0.6-1.1,1.5c-0.1,0.6,0.3,1.6,0.3,1.6c1.3-2.4,2.7-0.5,3.8-2c0.7-0.8,0.8-2.3,0.2-2.9
			c1.9,0.3,3.3-2.2,3.8-3.5c-1.1-0.2-2.8-0.8-3.8,0.2c1.4-2.2-0.7-2.9-1.5-2.7c-1.7,0.4-1.4,2.1-3.2,1.6l0.1,0.9
			c0.3,0.8,1.1,1.1,1.7,1c0.7-0.1,0-0.4,0.6-0.4c0.2,0,0.4,0.5-0.1,0.7L235,185v-18.1l6.1-3c0.4-0.2,0.3,0.3,0.1,0.5
			c-0.3,0.4-0.3,0.2-0.9,0.6c-0.9,0.4-0.9,0.6-1.1,1.5c-0.1,0.6,0.3,1.6,0.3,1.6c1.3-2.4,2.7-0.4,3.8-1.9c0.7-0.8,0.8-2.3,0.2-2.9
			c1.9,0.3,3.3-2.2,3.8-3.5c-1.1-0.2-2.8-0.8-3.8,0.2c1.4-2.2-0.7-2.9-1.5-2.7c-1.7,0.4-1.4,2.1-3.2,1.6l0.1,0.9
			c0.3,0.8,1.1,1.1,1.7,1c0.7-0.1,0-0.4,0.6-0.4c0.2,0,0.4,0.5-0.1,0.7l-6.2,2.8v-8l0.1-0.2C235.7,147.8,242.2,141.6,250.2,140.6z"
			/>
		<polygon class="st2" points="250.8,140.6 252.5,140.6 252.6,195 250.8,196.1 		"/>
		<path class="st1" d="M212.5,85.1c-5.6,0-11.2,0.6-13.3,1.6v30.4h13.3h13.3V86.7C223.7,85.8,218.1,85.2,212.5,85.1z"/>
		<path class="st1" d="M212.5,82.8c-5.9-0.1-11.8,0.5-14,1.7c-1.1,0.3-0.2,1.8,0.3,1.7c2.2-1.2,8-1.7,13.8-1.7
			c5.7-0.1,11.6,0.4,13.8,1.7c0.4,0,1.4-1.4,0.3-1.7C224.2,83.3,218.4,82.7,212.5,82.8z"/>
		<path class="st1" d="M212.5,80.3c-6.2,0-12.2,0.7-14.8,2c-1.1,0.3-0.2,1.8,0.3,1.7c2.9-1.3,8.7-1.9,14.5-1.8
			c5.8-0.1,11.6,0.6,14.5,1.8c0.4,0.1,1.4-1.4,0.3-1.7C224.7,81,218.6,80.3,212.5,80.3z"/>
		<path class="st1" d="M212.5,66.9h0.4c1.8,0,3.9,0.2,5.7,0.4l-1.1,8l0.2,0.3l4.3,0.5l0.3-0.2l1.7-7.9c2.9,0.7,5.6,1.8,7.9,3.3
			c-2.5,3-3.5,6.6-4.8,10.1c-2.8-1.1-8.6-1.8-14.5-1.8c-5.9,0-11.7,0.7-14.5,1.8c-1.4-3.5-2.4-7.1-4.8-10.1c2.2-1.5,4.9-2.5,7.9-3.3
			l1.7,7.9l0.3,0.2l4.3-0.5l0.3-0.3l-1.1-8c1.8-0.2,3.9-0.4,5.7-0.4H212.5z"/>
		<polygon class="st1" points="212.5,117.7 227.7,117.7 227.7,130.5 212.5,130.5 197.3,130.5 197.3,117.7 		"/>
		<path class="st1" d="M212.5,131.1h-57.8c-0.5,1.3-1.1,2.4-1.9,3.5h59.7h59.6c-0.7-1-1.4-2.2-1.9-3.5H212.5z"/>
		<path class="st1" d="M212.5,140.6c-9.7,0.1-18.5,7-19.3,15.9l0,48.9c-0.9-0.3-1.8-0.6-2.7-0.9l0.1-48.8
			c0.9-10.2,10.7-18.1,21.9-18.2c11.2,0.1,20.8,8,21.8,18.2l0.1,48.8c-0.9,0.3-1.8,0.6-2.7,0.9l0-48.9
			C230.9,147.7,222.2,140.7,212.5,140.6z"/>
		<path class="st0" d="M209.3,103.6c0-1.3,0.8-2.4,1.9-2.8v-7.3h2.4v7.3c1.1,0.5,1.9,1.6,1.9,2.8c0,1.7-1.4,3.1-3.1,3.1
			C210.7,106.7,209.3,105.3,209.3,103.6z"/>
		<rect x="207.7" y="121.6" class="st0" width="9.6" height="6"/>
		<path class="st2" d="M246.7,160c-0.4,1-1.6,3.2-3.9,2.6c0,0-0.1,0.1-0.1,0.2c1.5,0.7,0.8,2.9-0.2,3.4c-1,0.4-1.7-0.4-2.8,1
			c-0.2-0.4,0-1.4,0.7-1.8c0.5-0.3,0.6-0.1,1.1-0.5c0.3-0.3,0.4-0.8,0.4-1.3c0-0.4-0.7-0.1-0.7-0.1l-6.2,3v-2.1l5.9-2.7
			c0.7-0.3,0.8-0.8,0.8-0.8c0.1-0.4,0.2-1-0.3-1c-0.8-0.1-0.4,0.4-1.1,0.5c-0.4,0-1-0.5-1.1-1c1.7,0.1,1.7-1.8,3.3-1.7
			c1.5,0.1,1.1,1.7,0,3.3c0,0.2,0.1,0.2,0.1,0.2C244.1,159.2,245.7,159.9,246.7,160z"/>
		<path class="st2" d="M246.7,181.2c-0.4,1-1.6,3.2-3.9,2.6c0,0-0.1,0.1-0.1,0.2c1.5,0.7,0.8,2.9-0.2,3.4c-1,0.5-1.7-0.4-2.8,1
			c-0.2-0.4,0-1.5,0.7-1.8c0.5-0.3,0.6,0,1.1-0.5c0.3-0.3,0.4-0.8,0.4-1.3c0-0.4-0.7-0.1-0.7-0.1l-6.2,3v-2.1l5.9-2.7
			c0.7-0.3,0.8-0.8,0.8-0.8c0.1-0.4,0.2-1-0.3-1c-0.8-0.1-0.4,0.4-1.1,0.5c-0.4,0-1-0.5-1.1-0.9c1.7,0,1.7-1.8,3.3-1.7
			c1.5,0.2,1.1,1.7,0,3.3c0,0.2,0.1,0.2,0.1,0.2C244.1,180.4,245.7,181.2,246.7,181.2z"/>
		<path class="st2" d="M178.3,160c0.4,1,1.6,3.2,3.9,2.6c0.1,0,0.1,0.1,0.1,0.2c-1.5,0.7-0.8,2.9,0.2,3.4c1,0.4,1.7-0.4,2.8,1
			c0.2-0.4-0.1-1.4-0.7-1.8c-0.5-0.3-0.6-0.1-1.1-0.5c-0.3-0.3-0.4-0.8-0.4-1.3c0-0.4,0.7-0.1,0.7-0.1l6.2,3v-2.1l-5.9-2.7
			c-0.7-0.3-0.8-0.8-0.8-0.8c-0.1-0.4-0.2-1,0.2-1c0.8-0.1,0.4,0.4,1.2,0.5c0.3,0,1-0.5,1-1c-1.7,0.1-1.7-1.8-3.3-1.7
			c-1.4,0.1-1,1.7,0,3.3c0,0.2-0.1,0.2-0.1,0.2C180.9,159.2,179.2,159.9,178.3,160z"/>
		<path class="st2" d="M178.3,181.2c0.4,1,1.6,3.2,3.9,2.6c0.1,0,0.1,0.1,0.1,0.2c-1.5,0.7-0.8,2.9,0.2,3.4c1,0.5,1.7-0.4,2.8,1
			c0.2-0.4-0.1-1.5-0.7-1.8c-0.5-0.3-0.6,0-1.1-0.5c-0.3-0.3-0.4-0.8-0.4-1.3c0-0.4,0.7-0.1,0.7-0.1l6.2,3v-2.1l-5.9-2.7
			c-0.7-0.3-0.8-0.8-0.8-0.8c-0.1-0.4-0.2-1,0.2-1c0.8-0.1,0.4,0.4,1.2,0.5c0.3,0,1-0.5,1-0.9c-1.7,0-1.7-1.8-3.3-1.7
			c-1.4,0.2-1,1.7,0,3.3c0,0.2-0.1,0.2-0.1,0.2C180.9,180.4,179.2,181.2,178.3,181.2z"/>
		<path class="st2" d="M186.3,25c-4.2,2.2-7.9,4.9-10.5,8c-0.7,0-1.4,0-2.1,0.3c-2.2,0.7-2.5,2.3-2.7,2.4c0,0-0.1-0.1-0.1-0.2
			l0.1-0.5c2.5-5.1,8.7-9.6,16.7-12.7C187.1,23.2,186.6,24.1,186.3,25L186.3,25z M233.3,22.7c-6.3-2.4-13.4-3.9-19.9-4l-0.2-0.3
			c-0.3-0.3-0.6-0.3-0.9,0l-0.2,0.2c-6.5,0.1-13.7,1.4-20.2,3.9c-0.4-0.4-0.9-0.9-1.3-1.3c6.8-2.3,14.5-3.6,22.1-3.7
			c7.6,0.1,15.4,1.2,22.3,3.4C234.5,21.4,233.9,22,233.3,22.7L233.3,22.7z M249.6,33.1c-2.2-2.8-5.8-5.5-10.2-7.7
			c-0.3-1.2-0.9-2.4-1.5-3.4c6.6,2.5,12.1,6.1,15.5,10.7c0.3,1.4,1.5,2.5,1.1,3.1c-0.1,0-0.2-0.3-0.3-0.4c-0.5-1-1.4-1.7-2.5-2
			C251.2,33.1,250.4,33,249.6,33.1z"/>
		<path class="st2" d="M212.9,8.6c-2.2,0-4,1.8-4,4.1c0,2.3,1.8,4.1,4,4.1c2.2,0,4.1-1.8,4.1-4.1C216.9,10.5,215.1,8.6,212.9,8.6z"
			/>
		<path class="st2" d="M203.2,47.4c5.3-0.4,7.6-3.7,7.6-6.9c0-1.4,0.1-3.2-0.9-4.3c-0.6-0.5-1.4-0.5-1.8,0.2
			c-0.4,0.6-0.5,1.8-0.1,3.4c0.4,1.5-1.9,2.8-3.1,2.4c-0.7-0.3-0.5-0.9-0.1-1c0.8-0.3,0.9-0.9,0.9-1.8c0-1-1.6-3.9-1.9-5.2
			c-0.7-3.3,1.6-4.5,3.6-4.5c0.9,0,1.7,0.3,2.4,0.8l0.1,0.1l0.1,0.1c0.3,0.3,0.8,0.7,1.3,0.2c0.7-1.4-2.6-2.5-2.5-4.2
			c0.1-2.9,2.5-6.1,4-7.7c1.4,1.7,3.9,4.8,4,7.7c0,1.7-3.2,2.8-2.5,4.3c0.4,0.5,1,0,1.3-0.3l0.1-0.1l0.1-0.1
			c0.6-0.5,1.5-0.8,2.4-0.8c2.1,0,4.3,1.1,3.7,4.5c-0.3,1.4-1.9,4.2-1.9,5.2c0,0.9,0.1,1.5,1,1.9c0.3,0.1,0.4,0.8-0.1,0.9
			c-1,0.3-3.5-0.9-3.1-2.3c0.4-1.6,0.3-2.7-0.1-3.4c-0.4-0.7-1.2-0.7-1.9-0.2c-1,1.1-0.9,2.9-0.9,4.3c0,3.2,2.1,6.3,7.1,6.9
			l-0.9,10.9c-2.9-0.1-5.9-0.2-8.9-0.2c-2.7,0-5.4,0.1-8,0.2L203.2,47.4L203.2,47.4z M202.7,47.4c-4.8,0-8.1-2.8-8.5-5.9
			c-0.2-1.4-0.5-3.1,0.3-4.4c0.6-0.6,1.4-0.7,1.9,0c0.5,0.6,0.7,1.7,0.5,3.3c-0.2,1.5,2.2,2.6,3.4,2c0.7-0.4,0.4-0.9,0-1
			c-1.3-0.3-1.3-1.9-1.1-2.8c0.3-1.4,0.9-2.9,1-4.3c0.2-3.4-2.2-4.2-4.2-4c-0.9,0.1-1.7,0.5-2.3,1l-0.1,0.1l-0.1,0.1
			c-0.3,0.3-0.7,0.8-1.2,0.4c-0.9-1.4,2.2-2.8,1.9-4.5c-0.4-2.8-2.9-4.9-4.9-6.7c-1.5,2.1-3.3,4.8-3,7.6c0.2,1.7,3.6,2.4,3.1,3.9
			c-0.5,0.7-1.2,0-1.6-0.2c-2.5-1.5-7,0-5.5,4.3c0.5,1.4,2.4,4,2.6,5c0.1,0.9,0.1,1.5-0.6,1.9c-0.2,0.1-0.6,0.6,0.3,1
			c1,0.3,3.3-1.3,2.7-2.7c-0.6-1.5-0.7-2.7-0.4-3.4c0.4-0.7,1.1-0.8,1.8-0.4c1.2,1,1.3,2.8,1.5,4.2c0.4,3.2-0.9,6.5-5.9,7.6
			l2.1,10.4c5.2-0.8,11-1.4,17.2-1.7L202.7,47.4L202.7,47.4z M185.7,60.1c-2.9,0.4-5.7,0.9-8.1,1.4l-1.4-4.1l0.4-0.2
			c0.7-0.3,0.7-1.1,0.4-1.7c-0.3-0.9-0.7-3.2-2.4-2.5c-1.2-3.3-2.5-7.2-3.9-11c0.6-0.4,0.7-1.2,0.5-1.9l-0.7-2.2
			c-0.2-0.7-1.1-1.1-1.6-0.9c-2-5.6-3.5-10-3.8-10.6c2.3,1.3,5,2.3,6.1,5c0.7,1.6-2,3.6-0.8,4.8c0.6,0.3,0.9-0.2,1.1-0.7
			c0.4-0.8,1.2-1.4,2.1-1.7c2-0.6,4.5-0.2,5.1,3.1c0.2,1.5,0,3,0,4.4c0,1,0.3,2.5,1.7,2.6c0.3,0,0.8,0.4,0.2,1
			c-0.8,0.7-3.6,0.2-3.8-1.3c-0.2-1.6-0.7-2.7-1.3-3.1c-0.7-0.5-1.4-0.3-1.8,0.4c-0.6,1.4,0.2,3.1,0.7,4.3c1,2.8,4.9,4.9,9.1,4.5
			L185.7,60.1L185.7,60.1z M238.9,60l2-10.4c-4.7-1.2-5.9-4.4-5.5-7.5c0.2-1.4,0.3-3.2,1.5-4.2c0.7-0.4,1.5-0.3,1.8,0.4
			c0.3,0.7,0.2,1.8-0.4,3.4c-0.6,1.4,1.7,3,2.7,2.7c0.9-0.3,0.5-0.9,0.3-0.9c-1.2-0.6-0.8-2.1-0.3-3c0.7-1.3,1.7-2.6,2.2-4
			c1.5-4.2-3-5.8-5.5-4.3c-0.4,0.2-1.1,1-1.6,0.3c-0.5-1.5,2.9-2.2,3.1-4c0.3-2.9-1.7-6.2-2.8-8c-1.7,1.5-4.6,4.2-5,7.1
			c-0.3,1.7,2.8,3.2,2,4.5c-0.6,0.5-1,0-1.3-0.3l-0.1-0.1l-0.1-0.1c-0.6-0.6-1.4-1-2.3-1c-2.1-0.2-4.5,0.6-4.2,4
			c0.1,1.4,1.3,4.4,1.2,5.4c-0.1,0.9-0.3,1.5-1.1,1.7c-0.4,0-0.7,0.6,0,1c1.2,0.6,3.6-0.5,3.4-2c-0.2-1.6,0-2.7,0.5-3.3
			c0.5-0.7,1.3-0.6,1.9,0c0.9,1.2,0.5,3,0.3,4.4c-0.4,3.2-3.9,5.9-8.7,5.9l-0.3,0l-0.9,10.9C227.6,58.6,233.5,59.2,238.9,60
			L238.9,60z M246.6,61.3c-2.3-0.4-4.7-0.9-7.3-1.2l2.1-10.4c0.2,0,0.3,0.1,0.5,0.1c4.2,0.3,8-1.8,9.1-4.5c0.5-1.3,1.3-3,0.7-4.4
			c-0.4-0.7-1.1-0.9-1.8-0.3c-0.6,0.5-1.1,1.5-1.3,3.1c-0.2,1.5-3,2-3.8,1.3c-0.6-0.5-0.1-1,0.3-1c0.8-0.1,1.1-0.6,1.5-1.5
			c0.4-1-0.1-4.1,0.1-5.5c0.5-3.4,3.1-3.8,5.1-3.1c0.9,0.3,1.5,0.8,2,1.5c0.3,0.4,0.5,1.3,1.3,0.9c1.1-1.1-1.6-3.1-0.9-4.7
			c1.1-2.6,3.8-3.6,6-5l0.1-0.2v0.2c-1.3,3.8-2.6,7.3-3.8,10.7c-0.4-0.2-1.3,0.2-1.5,0.9l-0.7,2.2c-0.2,0.6-0.1,1.4,0.4,1.8
			c-1.6,4.3-3.1,8-4.3,11.1l-0.3-0.1c-0.7-0.3-1.5,0.1-1.8,0.9c-0.3,1-1.6,2.8,0.3,3.5C247.7,59.1,247,60.5,246.6,61.3z"/>
		<path class="st0" d="M214.7,49.2c0.9,0,1.7,0.6,1.7,1.5v1.8c0,0.8-0.8,1.5-1.7,1.5h-4.2c-0.9,0-1.7-0.6-1.7-1.5v-1.8
			c0-0.8,0.8-1.5,1.7-1.5H214.7z"/>
		<path class="st0" d="M210.7,33.2c0-0.7,0.6-1.1,1.2-1.1h0.9c0.6,0,1.2,0.4,1.2,1.1v2.5c0,0.7-0.6,1.1-1.2,1.1h-0.9
			c-0.6,0-1.2-0.4-1.2-1.1V33.2z"/>
		<path class="st0" d="M189.3,34.9c-0.2-1.2,1.2-1.3,2-1.4c1.8-0.2,1.6,2.5,1.7,3.4c0.2,1.2-1.2,1.3-2,1.4
			C189.2,38.6,189.4,35.8,189.3,34.9z"/>
		<path class="st0" d="M195,50.4c2-0.2,1.9,1.8,2,3.1c0.1,0.8-0.6,1.5-1.5,1.6l-4.2,0.4c-2,0.2-1.8-1.8-2-3.1
			c-0.1-0.8,0.6-1.5,1.5-1.6L195,50.4z"/>
		<path class="st0" d="M235.7,34.9c-0.1,0.9,0.1,3.7-1.7,3.4c-0.7-0.1-2.1-0.2-2-1.4c0.1-0.8-0.1-3.6,1.7-3.4
			C234.5,33.7,235.9,33.8,235.7,34.9z"/>
		<path class="st2" d="M214.7,49.8h-4.2c-0.6,0-1.1,0.4-1.1,0.9v1.8c0,0.4,0.4,0.9,1.1,0.9h4.2c0.6,0,1.1-0.4,1.1-0.9v-1.8
			C215.8,50.2,215.4,49.8,214.7,49.8z"/>
		<path class="st2" d="M173.9,53.9c-0.3,0.1-0.5,0.6-0.3,1.1c0.1,0.3,0.6,2.7,1.7,2.2l1-0.4c0.9-0.4-0.2-2.5-0.3-2.8
			c-0.2-0.4-0.7-0.7-1.1-0.5L173.9,53.9z"/>
		<path class="st2" d="M169,37.8c-0.4,0.2-0.6,0.6-0.4,1.1l0.7,2.2c0.2,0.5,0.7,0.8,1.1,0.6h0.1l0.1,0c0.3-0.2,0.5-0.7,0.3-1.3
			l-0.7-2.1c-0.1-0.4-0.6-0.6-1-0.4L169,37.8L169,37.8z"/>
		<path class="st2" d="M235.1,34.9c0.1-0.7-2.1-1-2.2-0.3l-0.3,2.5c-0.1,0.8,2.1,1.1,2.2,0.3L235.1,34.9z"/>
		<path class="st2" d="M211.3,33.2v2.5c0,0.3,0.2,0.5,0.6,0.5h0.9c0.4,0,0.7-0.3,0.7-0.5v-2.5c0-0.3-0.3-0.5-0.7-0.5h-0.9
			C211.5,32.7,211.3,33,211.3,33.2z"/>
		<path class="st2" d="M250.8,53.9c-0.6-0.2-1.6-0.9-1.9,0.1c-0.2,0.5-1.4,2.3-0.3,2.8c0.6,0.2,1.5,0.9,2-0.1
			C250.8,56.1,251.9,54.3,250.8,53.9z"/>
		<path class="st2" d="M189.9,34.9l0.4,2.5c0.1,0.7,2.3,0.4,2.1-0.3l-0.3-2.5C192,33.8,189.8,34.1,189.9,34.9z"/>
		<path class="st2" d="M195,51c-2.1,0.2-5.3,0-5.2,1.4c0.1,0.9-0.1,2.7,1.4,2.6c2.1-0.2,5.3,0,5.2-1.4C196.3,52.7,196.5,50.9,195,51
			z"/>
		<path class="st0" d="M229.4,50.4l4.2,0.4c2,0.2,1.4,2.2,1.3,3.4c-0.1,0.8-0.9,1.4-1.8,1.3l-4.2-0.4c-2-0.2-1.4-2.1-1.3-3.4
			C227.7,50.9,228.5,50.3,229.4,50.4z"/>
		<path class="st2" d="M256.6,37.8c-0.3-0.2-1,0-1.1,0.4l-0.7,2.2c-0.2,0.5,0,1.1,0.3,1.3l0.1,0h0.1c0.3,0.2,0.9-0.1,1.1-0.6
			l0.7-2.2C257.2,38.4,257,38,256.6,37.8z"/>
		<path class="st2" d="M229.3,51c-1.5-0.2-1.3,1.7-1.3,2.5c-0.2,1.4,3,1.2,5.2,1.4c1.5,0.1,1.2-1.7,1.3-2.6
			C234.7,51,231.5,51.2,229.3,51z"/>
		<path class="st2" d="M214.5,0.6l-0.7,2.5l0.3,0.4l3-0.6v2.7l-3-0.6l-0.3,0.3l0.7,3.1c-0.5-0.2-1-0.3-1.6-0.3c-0.5,0-1,0.1-1.5,0.3
			l0.7-3l-0.3-0.3l-3,0.6V2.8l3,0.6l0.3-0.4l-0.7-2.5H214.5z"/>
		<path class="st3" d="M270.2,130.5h-9.2v-11.9l-0.3-0.3h-1.6V97.9c0.7-0.3,1.2-1.4,0.9-2.2c0.8-0.5,1.2-2,0.3-2.6
			c1.2-3.4,2.3-7,4.6-9.9l0-0.4c-2.1-1.5-4.7-2.6-7.5-3.3l-0.3,0.2l-1.4,7.2l-3.1-0.4l0.8-7.5l-0.3-0.3c-1.6-0.2-4-0.3-5.7-0.3
			c-1.7,0-3.7,0.1-5.4,0.3l-0.3,0.3l0.8,7.5l-2.9,0.4l-1.4-7.2l-0.3-0.2c-2.8,0.7-5.4,1.8-7.5,3.3l-0.1,0.4
			c2.4,2.9,3.4,6.6,4.7,10.1c-0.6,0.7-0.2,2,0.5,2.4c-0.3,0.8,0.2,2,0.8,2.2c0,0.8,0,1.7,0,2.5c0,2,0,4.7,0,7.4
			c0,4.6-0.1,9.2-0.1,10.5h-1.5l-0.3,0.3v11.9h-6v-13.1l-0.3-0.3h-1.6V86.9c1.1,0,1.4-1.4,1-2.3c1.2-0.3,1.2-2.4,0.2-2.8
			c1.4-3.6,2.4-7.2,5-10.2l-0.1-0.4c-2.4-1.7-5.4-2.8-8.6-3.6l-0.3,0.2l-1.7,7.9l-3.7-0.5l1.1-8l-0.3-0.3c-1.9-0.2-4.1-0.4-6.1-0.4
			h-0.4h-0.4c-2,0-4.2,0.2-6.1,0.4l-0.3,0.3l1.1,8l-3.7,0.5l-1.7-7.9l-0.3-0.2c-3.2,0.8-6.2,2-8.6,3.6l0,0.4c2.5,3,3.6,6.6,5,10.2
			c-1,0.4-1,2.6,0.2,2.8c-0.4,0.9-0.1,2.4,1,2.3v30.2H197l-0.3,0.3v13.1h-6v-11.9l-0.3-0.3h-1.5c0-1.3-0.1-5.9-0.1-10.5
			c0-2.7,0-5.4,0-7.4c0-0.8,0-1.7,0-2.5c0.7-0.3,1.2-1.4,0.8-2.2c0.7-0.4,1.1-1.7,0.6-2.4c1.3-3.5,2.3-7.2,4.7-10.1l-0.1-0.4
			c-2.1-1.5-4.7-2.6-7.5-3.3l-0.3,0.2l-1.4,7.2l-2.9-0.4l0.8-7.5l-0.3-0.3c-1.6-0.2-3.6-0.3-5.4-0.3c-1.7,0-4.1,0.1-5.7,0.3
			l-0.3,0.3l0.8,7.5l-3.1,0.4l-1.4-7.2l-0.4-0.2c-2.8,0.7-5.4,1.8-7.5,3.3l-0.1,0.4c2.3,2.9,3.4,6.5,4.6,9.9c-1,0.6-0.5,2.1,0.3,2.6
			c-0.3,0.8,0.2,2,0.9,2.2v20.5h-1.6l-0.3,0.3v11.9h-9c3.1-7.8,3.1-18.7,2.8-24.2c-0.5-14.2-4-26.3-11.4-29.5
			c12.2-11.7,37.6-17.6,66.3-17.7h0.1c28.6,0.1,54,6.1,66.3,17.7c-7.5,3.2-11,15.3-11.4,29.5C267.1,111.8,267.2,122.7,270.2,130.5z"
			/>
		<path class="st0" d="M210.6,152.2v-3.7h-6.3v3.7H210.6L210.6,152.2z M220.7,152.2v-3.7l-6.4,0v3.7L220.7,152.2z"/>
		<path class="st0" d="M227.8,148.4h-3.3v3.7h5.5C229.4,150.8,228.7,149.6,227.8,148.4L227.8,148.4z M214.3,141.2v3.7h6.4v-2
			C218.7,142.1,216.6,141.5,214.3,141.2L214.3,141.2z M204.3,143v2h6.3v-3.7C208.4,141.5,206.3,142.1,204.3,143L204.3,143z
			 M195,152.2h5.6v-3.7h-3.4C196.3,149.6,195.5,150.9,195,152.2z"/>
		<path class="st2" d="M200.6,155.2l-6.5,0c0.2-0.9,0.4-1.7,0.7-2.5h5.8V155.2L200.6,155.2z M203.8,158.8l-1.4,2.3l-1.4-2.2v-14
			c0.9-0.6,1.8-1.1,2.8-1.6V158.8L203.8,158.8z M224.1,158.7l-1.5,2.4l-1.3-2.3v-15.6c1,0.5,1.9,1.1,2.8,1.7L224.1,158.7
			L224.1,158.7z M213.8,158.8l-1.4,2.3l-1.4-2.2l0-17.6c0.5,0,1-0.1,1.5-0.1c0.4,0,0.8,0,1.3,0L213.8,158.8L213.8,158.8z
			 M230.2,152.6c0.2,0.7,0.6,1.7,0.7,2.6h-6.4v-2.6H230.2L230.2,152.6z M220.7,155.2l-6.4,0v-2.6h6.4V155.2L220.7,155.2z
			 M210.6,155.2h-6.3v-2.6l6.3,0V155.2L210.6,155.2z M227.4,148l-2.9,0v-2.6h0.2C225.7,146.2,226.6,147.1,227.4,148L227.4,148z
			 M220.7,148h-6.4v-2.6h6.4V148L220.7,148z M210.6,148h-6.3v-2.6h6.3V148L210.6,148z M200.6,148h-3c0.8-0.9,1.7-1.8,2.7-2.6h0.3
			V148z"/>
		<rect x="204.3" y="148.5" class="st3" width="6.3" height="3.7"/>
		<polygon class="st3" points="220.7,152.2 220.7,148.4 214.3,148.5 214.3,152.2 		"/>
		<path class="st3" d="M227.8,148.4h-3.3v3.7h5.5C229.4,150.8,228.7,149.6,227.8,148.4z"/>
		<path class="st3" d="M214.3,141.2v3.7h6.4v-2C218.7,142.1,216.6,141.5,214.3,141.2z"/>
		<path class="st3" d="M204.3,143v2h6.3v-3.7C208.4,141.5,206.3,142.1,204.3,143z"/>
		<path class="st3" d="M195,152.2h5.6v-3.7h-3.4C196.3,149.6,195.5,150.9,195,152.2z"/>
		<path class="st3" d="M224.5,158.8l0,0.1l-1.8,2.7h-0.4l-1.6-2.7l0-0.1v-3.2l-6.4,0v3.2l0,0.1l-1.7,2.7h-0.3l-1.6-2.6l0-0.1v-3.2
			h-6.3v3.2l0,0.1l-1.6,2.7h-0.4l-1.7-2.6l0-0.1v-3.3H194c0,0.3-0.1,0.6-0.1,0.9l0,49.2c0,0,8.9,2.9,18.6,2.9
			c9.7,0.1,18.6-2.9,18.6-2.9l0-49.1c0-0.3,0-0.6-0.1-0.8h-6.5V158.8z"/>
		<path class="st0" d="M207.5,189.4c-1.3,0.5-3.8,1.6-4.4,1.8c0,0-0.2,0.2-0.1,0.3c0.2,0.2,1.2,0.5,1.4,1.1c0,0.3,0,0.4,0,0.8
			c0,1.1-0.8,1.5-1.9,0.9c0.3-0.2,0.4-0.4,0.6-0.8c0.1-0.2-0.1-0.3-0.2-0.4c-1.1-0.8-3.4,1.7-4.1,2.4c-0.2,0.4,0,0.8,0.2,1.1
			c-0.4,0.1-1.8,0-1.5-1.7c0-1.2,1.6-1.8,2.1-2.2c-0.6,0.1-2.1,0.4-2.6,0.9c-0.1,0.3-0.2,0.5,0.1,1c-0.3,0-0.7,0-0.9-0.2
			c-0.3-0.3-0.5-0.5-0.3-1.4c0.1-0.2,0.2-0.4,0.2-0.5c0.4-0.9,1.7-1.2,3.1-1.2c-0.6-0.2-1-0.4-1.6-0.6c-0.3,0.1-0.4,0.4-0.4,0.7
			c-0.6-0.2-1.4-1.4,0.1-2c0.3-0.2,0.9-0.2,1.1-0.1c0.9,0.2,1.5,0.9,2.7,1c1-0.1,4.3-2,5.2-2.5c0-0.5,0.7-4.4,3-4.4
			c-0.3-0.2-0.9-1.8-1-2c-0.1,0.2,0.1-0.2-0.1,0.2c0,0.1-0.1,0.2-0.1,0.3c-0.4,1.3-1.7,3.9-3,4.9c-0.8,0.7-3,0.8-3.6,0.2
			c-0.1-0.1-0.6-0.4-0.3-0.8c0.7-0.3,3.1-3.8,3.9-5.3c0,0-0.3,0.2-0.4,0.3c-1.4,2.1-4.1,5-5.7,5.7c-1.9,0.9-3.6-0.2-4-1
			c0-0.3-0.2-0.6,0.1-0.8c1.3-0.4,6.1-5.2,6.4-5.7c0,0,0.1,0,0.3-0.2c-0.2,0-0.2,0-0.2,0h-0.1c-0.6,0.5-2.4,2-3.7,2.2
			c-1,0.1-2.2-0.4-2.8-1.5c-0.3-0.6-0.1-0.7,0.2-0.8c0.8-0.2,3.3-1.9,4.3-2.6c0,0-0.1-0.1-0.2-0.1l0-0.1c-1.4,0.5-2.2,0.4-2.5,0.3
			c-0.3-0.1-1.7-0.7-1.9-2c0-0.1-0.1-0.7,0.3-0.8c0.5,0.1,2.5-0.6,3.9-1.1c0-0.1,0.1-0.2,0.2-0.3c-0.7,0-2.1-0.1-2.8-0.6
			c-1.1-0.7-1.4-1.8-1.5-2.2c-0.1-0.2,0-1,0.3-1.1c0.6,0.3,3.7,0.4,5.2,0.2l-0.1,0c-1.8-0.2-4.9-0.8-4.8-3.8c0-0.3-0.1-0.8,0.3-0.7
			c1.4,0.9,5.3,1.6,6.9,1.6c1-0.2,2.5-0.4,3.3,0.7c0.1,0.2,0.6,0.9,0.5,1.8c-0.1,1.9-1.9,2.9-1.9,4.3c0.1,2.8,1.6,4,3.9,3.7l0.8-0.1
			l0-0.1c0.2-0.5,0.6-1,1.2-1.6c0.6-0.7,1.2-1.8,0.8-2.8c0-0.1-0.2-0.2-0.4-0.3c-0.1,0-0.6,0-0.7,0c0-0.1,0-0.1,0-0.2
			c-0.3,0.2-1,0.7-1.7,0.5c-0.4-0.2-1-0.7-0.8-1.3l0.1,0c0.4,0.5,0.8,0.7,1.4,0.6c0.3-0.1,0.5-0.4,0.7-0.6c0.3-0.2,0.7-0.4,1.1-0.4
			c0.5,0,1,0.2,1.4,0.6c-0.1-0.2-0.2-0.4-0.3-0.5c-0.4-0.4-0.9-0.5-1.4-0.5c-0.5,0-1.2,0.1-1.3,0.6c0,0.1-0.1,0.3-0.2,0.5
			c-0.6-0.3-1-1.7-0.7-2.2c0.3-0.7,1-0.7,1.9-0.8c-0.3-0.9-1-3.6-1.3-4.5c0.4,0,1.3,0.2,1.3,0.7c0.1-0.1,0.5-0.2,0.7-0.1
			c0.5,0.3,0.4,1.3,0,1.5l-0.1,0c0-0.3-0.4-0.5-0.3,0c0.2,0.9,1.8,0.8,2.1,0.2c0.1-0.2,0-0.4-0.1-0.4c-0.2,0-0.2,0.2-0.2,0.3
			c-0.2-0.1-0.5-0.4-0.7-0.7c-0.1-0.2,0-0.6,0.1-0.8c0.2-0.2,0.3-0.3,0.5-0.2c0,0,0.1,0.1,0.1,0.1c0-0.3,0.2-0.5,0.3-0.7
			c0.1-0.1,0.1-0.2,0.2-0.3c0.1,0.2,0.3,0.3,0.4,0.5c0.1,0.1,0.2,0.3,0.2,0.5c0.3-0.1,0.5-0.1,0.7,0.1c0.1,0.2,0.2,0.6,0.1,0.8
			c-0.1,0.2-0.4,0.6-0.6,0.7c0-0.1,0-0.3-0.2-0.3c-0.2,0-0.2,0.2-0.1,0.4c0,0.5,1.8,0.8,2.1-0.1c0-0.5-0.4-0.3-0.4,0
			c-0.3-0.2-0.5-1.2,0-1.4c0.2-0.1,0.6-0.1,0.7,0c0-0.6,0.8-0.7,1.2-0.7c-0.3,0.7-1,3.9-1.3,4.7c0.2,0.3,0.5,2,0,3.8
			c-0.2,0.9-0.4,1.5-0.6,2.2c-0.1,0.8,0,1.8,0.4,2.1l0.9,0.2c2.4,0.4,3.8-0.9,3.9-3.7c0-1.4-1.8-2.4-1.9-4.3c0-0.9,0.4-1.6,0.5-1.8
			c0.8-1.1,2.3-0.8,3.3-0.7c1.6,0.1,5.5-0.7,6.9-1.6c0.4-0.1,0.3,0.4,0.3,0.7c0.1,3-3,3.6-4.8,3.8l-0.1,0c1.5,0.2,4.7,0,5.2-0.2
			c0.3,0.1,0.4,0.9,0.3,1.1c0,0.3-0.4,1.5-1.5,2.2c-0.7,0.5-2.1,0.6-2.9,0.6c0.1,0.1,0.2,0.2,0.3,0.3c1.3,0.5,3.4,1.1,3.9,1.1
			c0.4,0.2,0.3,0.7,0.3,0.8c-0.3,1.4-1.6,1.9-1.9,2c-0.3,0.1-1.1,0.2-2.5-0.3l0,0.1c0,0-0.1,0.1-0.2,0.1c1,0.7,3.4,2.4,4.2,2.6
			c0.3,0.1,0.5,0.2,0.2,0.8c-0.6,1.1-1.8,1.6-2.8,1.5c-1.2-0.2-3-1.6-3.7-2.2h-0.1c0,0,0,0-0.2,0c0.2,0.2,0.3,0.2,0.3,0.2
			c0.3,0.5,5.1,5.2,6.4,5.7c0.3,0.2,0.1,0.4,0.1,0.8c-0.4,0.9-2.1,1.9-3.9,1c-1.6-0.7-4.3-3.7-5.7-5.7c-0.1-0.1-0.4-0.3-0.4-0.3
			c0.8,1.5,3.2,5,3.9,5.3c0.2,0.4-0.3,0.7-0.4,0.8c-0.6,0.6-2.8,0.5-3.6-0.2c-1.2-0.9-2.7-3.8-3.2-5.2c-0.2,0.5-0.6,1.7-0.9,1.8
			c2.1,0,3,3.3,3,4.3c0.6,0.4,4.2,2.5,5.2,2.6c1.2-0.1,1.8-0.7,2.7-1c0.3-0.1,0.8,0,1.1,0.1c1.5,0.6,0.7,1.8,0.1,2
			c0.1-0.3,0-0.6-0.4-0.7c-0.5,0.2-1,0.4-1.6,0.6c1.4,0,2.6,0.3,3.1,1.2c0,0,0.1,0.2,0.2,0.5c0.2,0.9,0,1-0.3,1.4
			c-0.3,0.3-0.6,0.2-0.9,0.2c0.4-0.5,0.3-0.7,0.1-1c-0.5-0.4-2-0.8-2.6-0.9c0.6,0.4,2.2,1,2.1,2.2c0.2,1.8-1.1,1.8-1.5,1.7
			c0.2-0.3,0.4-0.7,0.2-1.1c-0.8-0.7-3-3.2-4.2-2.4c-0.1,0.1-0.3,0.2-0.2,0.4c0.1,0.4,0.3,0.6,0.6,0.8c-1.1,0.6-1.9,0.2-1.9-0.9
			c-0.1-0.3-0.1-0.5,0-0.8c0.3-0.7,1.3-0.9,1.4-1.1c0.1-0.1-0.1-0.3-0.1-0.3c-0.5-0.2-3.3-1.4-4.5-1.8c-0.4,0.5-0.7,1-0.8,1.3
			c-0.3-1-1.4-1.6-1.4-1.6c0-0.1-1-0.6-1.4-1.2c-0.1,1.1,0,3.2,0.7,3.7c0.3,0,1.2,0.6,1.4-0.8c1,0.7,0.8,2.2,0.5,2.6
			c-0.3,0.6-0.9,0.9-1.6,0.7c-0.5-0.2-1-0.5-1.3-1c0.1,0.9,0,0.9,0.8,1.3c0.3,0.2,1,0.4,1.6,0.4c0.6,0.1,2,0.3,3.8-0.2
			c1-0.1,2.2,0.7,2.6,1.4c0.3,0.9,0.4,1.1,0.3,1.7c-0.1,0.8-0.9,2.2-2,2.2c0,0-0.1-0.1-0.1-0.1c0.3-0.4,0.6-0.8,0.7-1.3
			c0-0.2,0-0.6-0.1-0.8c-0.3-0.5-0.7-0.5-1.2-0.4c-1,0.3-4,0.3-5,0c-0.4-0.1-1-0.4-1.3-0.7c-0.1,1,0.1,1.1,0.7,1.4
			c0.4,0.3,1.4,0.2,2.7,0.1c1,0,2,0.6,2.4,1.3c0.2,0.6,0.2,1,0.1,1.4c-0.1,0.7-0.7,1.3-1.6,1.3c0.2-0.5,0.4-0.6,0.2-1.2
			c-0.2-0.4-1-0.1-1.5-0.1c-0.7,0.1-2.3,0.4-3.1-0.6c0,1,0.3,1.8,0.8,2.1c0.3,0.2,0.8,0.3,1.1,0c0.3-0.1,0.6-0.7,0.6-0.9
			c0.4,0.4,0.6,1.3,0.5,1.9c-0.1,0.6-0.7,1.1-1.3,1.3c-0.4,0.1-1.2,0.2-1.7-0.5c0.1,0.1,0.1,0.2,0.1,0.3c0,0.5-0.1,0.9-0.3,1.3
			c-0.3,0.3-0.9,0.7-1.1,1c-0.2-0.3-0.4-0.7-0.8-1c-0.3-0.4-0.3-0.7-0.3-1.3c0-0.1,0-0.2,0.1-0.3c-0.5,0.6-1.3,0.6-1.7,0.5
			c-0.6-0.2-1.2-0.7-1.3-1.3c-0.1-0.6,0-1.4,0.5-1.9c0,0.2,0.2,0.8,0.6,0.9c0.3,0.3,0.8,0.2,1.1,0c0.4-0.3,0.9-1.2,0.9-2.2
			c-0.8,1-2.6,0.8-3.3,0.6c-0.5,0-1.2-0.3-1.4,0.1c-0.2,0.6,0,0.7,0.2,1.2c-0.9,0-1.5-0.5-1.6-1.3c0-0.4-0.1-0.8,0.1-1.4
			c0.3-0.7,1.4-1.3,2.4-1.3c1.3,0.1,2.2,0.1,2.7-0.1c0.5-0.3,0.7-0.4,0.7-1.4c-0.3,0.3-0.9,0.6-1.3,0.7c-1,0.3-3.9,0.3-5,0
			c-0.5,0-1,0-1.3,0.4c-0.1,0.2-0.2,0.6-0.1,0.8c0.1,0.5,0.3,0.9,0.7,1.3c0,0,0,0.1-0.1,0.1c-1,0-1.9-1.4-2-2.2c0-0.6,0-0.9,0.4-1.7
			c0.4-0.8,1.5-1.5,2.6-1.4c1.9,0.4,3.2,0.3,3.8,0.2c0.6-0.1,1.3-0.3,1.6-0.4c0.7-0.4,0.7-0.4,0.8-1.3c-0.3,0.5-0.6,0.7-1.2,1
			c-0.6,0.2-1.3-0.1-1.7-0.6c-0.3-0.4-0.5-2,0.5-2.7c0.2,1.4,1.2,0.9,1.4,0.8c0.7-0.4,0.8-2.5,0.8-3.7c-0.3,0.6-1.4,1.1-1.4,1.2
			c0,0-1.1,0.7-1.4,1.6C208.3,190.4,207.9,189.9,207.5,189.4z"/>
		<path class="st2" d="M217.8,189.1c0.9,0.2,3.2,1.3,4.4,1.8c0.3,0.1,0.4,0.2,0.4,0.5c-0.1,0.4-0.6,0.5-0.9,0.7
			c-0.3,0.1-0.6,0.3-0.7,0.7c-0.1,0.3,0,0.5,0.1,0.5c0.2,0.1,0.8,0.1,0.9-0.2c0.3-0.6,0.7-0.5,1.2-0.5c0.9,0.1,2.5,1.6,3.1,2.3
			c0.2,0.2,0.3,0.4,0.7,0.2c0.1,0,0.6-0.4,0.5-0.7c-0.1-0.8-2-1.7-2.6-2.1c0.7-0.1,2.1,0.3,2.8,0.5c0.3,0.1,0.4,0.3,0.6,0.3
			c0.2,0,0.6-0.5,0.5-0.7c-0.1-0.9-2.1-0.9-3-1c-0.2,0-0.4,0-0.3-0.1c0.7-0.3,1.1-0.5,1.9-0.7c0.4-0.1,0.5-0.5,0.3-0.9
			c-0.1-0.2-0.6-0.3-1,0c-1.5,0.9-2.4,0.9-2.7,0.9c-1-0.1-4.9-2.5-5.2-2.5C218.5,188.1,217.8,188.9,217.8,189.1z"/>
		<path class="st2" d="M207.4,189.2c-0.9,0.2-3.1,1.3-4.3,1.8c-0.3,0.1-0.4,0.2-0.4,0.5c0.1,0.4,0.6,0.5,0.9,0.7
			c0.3,0.1,0.6,0.3,0.7,0.7c0.1,0.3,0,0.5-0.1,0.5c-0.2,0.1-0.8,0.1-0.9-0.2c-0.3-0.6-0.7-0.5-1.2-0.5c-0.9,0.1-2.5,1.6-3.1,2.3
			c-0.2,0.2-0.3,0.4-0.7,0.2c-0.1,0-0.6-0.4-0.5-0.7c0.1-0.8,2-1.7,2.6-2.1c-0.7-0.1-2.1,0.3-2.8,0.5c-0.3,0.1-0.4,0.3-0.6,0.3
			c-0.2,0-0.6-0.5-0.5-0.7c0.1-0.9,2.1-0.9,3-1c0.2,0,0.4,0,0.3-0.1c-0.7-0.3-1.1-0.5-1.9-0.7c-0.4-0.1-0.5-0.5-0.3-0.9
			c0.1-0.2,0.6-0.3,1,0c1.5,0.9,2.4,0.9,2.7,0.9c1-0.1,4.9-2.5,5.2-2.5C206.8,188.1,207.4,189,207.4,189.2z"/>
		<path class="st2" d="M197.4,190.6c-0.2,0.1-0.4,0.1-0.5,0.5c-0.5-0.3-0.4-1.2,0.3-1.4C197.2,190.1,197.2,190.4,197.4,190.6z"/>
		<path class="st2" d="M202.9,194.2c0.2-0.1,0.4-0.4,0.4-0.6c0.1,0.1,0.6,0,0.9,0C204.2,194,203.6,194.6,202.9,194.2z"/>
		<path class="st2" d="M196.7,193.5c-0.1,0.3-0.1,0.6,0,0.8c-0.5,0.2-1.2-1-0.5-1.5C196.2,193,196.5,193.4,196.7,193.5z"/>
		<path class="st2" d="M198.4,195.5c-0.1,0.3,0,0.6,0.1,0.9c-0.4-0.1-1.2-0.4-0.9-1.4C197.7,195.2,198.2,195.5,198.4,195.5z"/>
		<path class="st4" d="M207.3,185.1c-0.4,0.8-1,1.9-0.8,2.6c0.6,0.4,1.7,1.9,1.8,2.4c0.5-1.4,2.9-1.7,2.7-3.2
			c-0.3-0.8-1.5-2.7-1.7-3.1C208.4,183.6,207.7,184.2,207.3,185.1z"/>
		<path class="st4" d="M211.8,168.4c0,0,0.1,0,0.2,0c0,0.2,0.1,0.5,0.4,0.5c0.3,0,0.4-0.3,0.4-0.5l0.2,0c0,0.3-0.2,0.7-0.7,0.7
			C212,169.1,211.8,168.7,211.8,168.4z"/>
		<path class="st4" d="M211.6,168.4c0,0.2,0,0.3,0.1,0.4c-0.1-0.1-0.5-0.3-0.6-0.5C211.3,168.4,211.4,168.4,211.6,168.4z"/>
		<path class="st2" d="M213.2,171.7c-0.1,0.1-0.4,0.1-0.5,0c-0.6-0.6-1.4-0.7-2.2-0.6c0.6-0.6,1.6-0.5,2.2,0c0.2-0.1,0.1-0.6-0.1-1
			c-0.4-0.6-0.9-0.8-1.5-0.8c-0.7,0-1.7,0.1-1.8,0.9c-0.3-0.3-0.7-1.3-0.4-1.8c0.3-0.6,0.8-0.6,1.8-0.6c0.1,0.4,0.5,1.1,1.7,1.5
			c0.4,0.2,0.9,0.9,0.9,1.4C213.3,171.1,213.3,171.4,213.2,171.7z"/>
		<polygon class="st4" points="212.4,168.4 212.4,168.6 212.4,168.7 212.5,168.5 212.5,168.4 		"/>
		<path class="st2" d="M213.2,167.5c-1,0-2.2,0-2.5,0c-0.2-0.6-1.2-4.2-1.2-4.2c0.3,0,0.5,0.1,0.7,0.2c0.2,0.2,0.2,0.3,0.2,0.6
			c0.1-0.2,0.4-0.3,0.6-0.3c0.4,0.1,0.5,0.8,0.2,1.1c0-0.2-0.3-0.3-0.4-0.2c-0.2,0.2-0.1,0.6,0,0.8c0.6,0.8,2,0.5,2.3-0.2
			c0.1-0.3-0.1-0.7-0.3-0.7c-0.2,0-0.2,0.1-0.3,0.3c-0.3-0.3-0.5-0.7-0.2-1c0.2-0.2,0.4-0.1,0.7,0.1c-0.1-0.5,0.2-0.6,0.4-0.9
			c0.2,0.3,0.6,0.5,0.4,0.9c0.2-0.2,0.5-0.3,0.7-0.1c0.3,0.4,0,0.7-0.3,1c0-0.1-0.1-0.3-0.3-0.3c-0.2,0-0.4,0.4-0.3,0.6
			c0.3,1,1.9,0.8,2.2,0.2c0.1-0.2,0.3-0.5,0-0.7c-0.1-0.1-0.4,0-0.4,0.2c-0.3-0.3-0.3-0.9,0.2-1.1c0.3-0.1,0.5,0.1,0.6,0.3
			c0-0.2,0-0.4,0.2-0.6c0.2-0.2,0.4-0.2,0.7-0.2c0,0-1,3.6-1.2,4.2C215.4,167.6,214.3,167.5,213.2,167.5z"/>
		<path class="st4" d="M215.7,171.6c-0.1,0.6-0.2,0.6-0.3,1.1c-0.2,0.8-0.3,1.1-0.4,1.8c-0.1,0.9,0.4,1.7,0.4,1.7
			c-1.4-0.2-2.5,0.8-2.9,1.4c0-0.1-0.9-1.5-2.4-1.4c-0.2,0.1-0.4,0-0.6,0.2c0.1-0.6,0.7-1.4,1.4-2.1c0.6-0.9,0.7-1,0.8-2.2
			c0-0.3-0.1-0.8-0.3-0.9c0.4,0,0.7,0.2,1,0.5c0.3,0.3,0.7,0.3,0.9,0.1c0.2-0.3,0.1-0.8,0.1-1.3c0-0.3-0.5-1.1-0.8-1.3
			c0.3,0,0.8-0.3,0.8-0.9c0.2,0,0.5,0,0.5,0.3c0,0,0.1,0,0.1-0.2c0-0.3-0.3-0.3-0.6-0.4c-0.7,0-1-0.1-1.8,0c-0.5,0-0.7-0.1-0.7-0.4
			c1.3-0.1,4.2,0,4.8,0C215.7,167.9,216.2,170,215.7,171.6z"/>
		<path class="st4" d="M212.6,178.3c0.2-0.7,1.3-2.1,2.7-1.8c1.1,0.3,2,1.6,2,2.9c0.1,1.8-3.8,8.1-4,8.6c-0.1,0.3-0.6,1.1-0.8,1.1
			c-0.1-0.1-0.6-0.8-0.7-1.1c-0.2-0.4-4.1-6.7-4-8.6c0-1.4,0.9-2.6,2-2.9C211.3,176.2,212.4,177.5,212.6,178.3z"/>
		<path class="st4" d="M212.7,189.6c0.3-0.3,1.1-1.7,1.2-2c0,0.4,0,2.6,0.3,3.1c0.1,0.2,0.3,1.1,1.4,1.2c0.6,0,0.8-0.3,1-0.7
			c0.4,0.4,0.5,1.8-0.1,2.3c-0.7,0.7-2.4-0.1-2.5-1.4l-0.1,0.1c0,0.6,0,1.5,0,1.5c0.1,0.3,0.2,0.3,0.3,0.5c0.2,0.3,1.7,0.7,1.7,0.7
			c2.1,0.4,3,0.3,3.8,0c0.5-0.1,1.4,0,1.8,0.2c0.5,0.3,1.4,1.1,1.5,2.4c-0.1,0.8-0.7,1.8-1.4,2c0.3-0.6,0.4-1.4,0.3-1.8
			c-0.4-0.8-0.7-0.4-1.1-0.6c-0.8-0.2-2.2,0.5-4.8,0c-0.6-0.1-1.4-0.3-2.1-1.2c-0.1,0,0,0.2-0.1,0.3c0,0.6,0,0.5,0,1.2
			c0.1,0.5,0.4,0.6,0.6,0.7c0.5,0.4,1.7,0.3,2.2,0.2c0.4-0.1,1.4,0,1.9,0.3c0.7,0.3,1.1,0.9,1.1,1.6c-0.1,1.6-1.2,1.7-1.2,1.7
			c0.2-0.3,0.2-0.8,0.2-1.1c-0.1-0.3,0-0.3-0.7-0.4c-0.7-0.2-2.9,1-4.4-0.8c-0.1,1.5,0.3,3.1,1.5,3.1c0.9,0,1.2-0.8,1.3-1
			c0,0,0.4,1.2,0,1.8c-0.4,0.7-1.2,0.8-1.7,0.7c-0.9,0-1.1-0.7-1.5-1.5c0,0.1,0,0.2-0.1,0.3c0.2,0.5,0.6,1,0.5,1.6
			c-0.1,0.5-0.7,1-1,1.4c0,0-0.1,0.1-0.1,0.1c0,0,0-0.1-0.1-0.1c-0.3-0.4-0.7-0.9-0.8-1.4c0-0.7,0.3-1.1,0.5-1.6c0-0.1,0-0.2,0-0.3
			c-0.4,0.8-0.7,1.4-1.6,1.5c-0.5,0.1-1.2,0-1.7-0.7c-0.4-0.6,0-1.8,0-1.8c0.1,0.1,0.4,1,1.3,1c1.2,0,1.7-1.7,1.6-3.1
			c-1.5,1.7-3.7,0.6-4.5,0.8c-0.7,0.1-0.6,0.1-0.7,0.4c-0.1,0.3-0.1,0.7,0.2,1.1c0,0-1.1,0-1.2-1.7c0-0.6,0.4-1.2,1.1-1.6
			c0.6-0.3,1.5-0.3,1.9-0.3c0.6,0.1,1.7,0.2,2.2-0.2c0.2-0.2,0.6-0.3,0.7-0.7c0-0.7,0-0.6,0-1.2c0-0.1,0-0.3-0.1-0.3
			c-0.6,0.9-1.5,1.1-2.1,1.2c-2.6,0.4-4-0.3-4.8,0c-0.4,0.2-0.7-0.2-1.1,0.6c-0.2,0.4,0,1.3,0.3,1.8c-0.7-0.2-1.3-1.3-1.4-2
			c0.1-1.4,0.9-2.1,1.4-2.5c0.4-0.3,1.4-0.3,1.9-0.2c0.8,0.2,1.7,0.3,3.8,0c0,0,1.5-0.4,1.7-0.7c0.2-0.2,0.3-0.2,0.3-0.5
			c0,0,0.1-0.9,0-1.5l-0.1-0.1c-0.2,1.3-1.7,2.1-2.5,1.4c-0.6-0.5-0.5-1.9-0.1-2.3c0.1,0.3,0.4,0.7,1,0.7c1.1-0.1,1.3-0.9,1.4-1.1
			c0.2-0.5,0.2-2.8,0.2-3.2C211.4,187.9,212.4,189.3,212.7,189.6z"/>
		<path class="st2" d="M227.9,190.6c0.2,0.1,0.4,0.1,0.5,0.5c0.5-0.3,0.4-1.2-0.4-1.4C228,190,228.1,190.4,227.9,190.6z"/>
		<path class="st2" d="M222.4,194.2c-0.2-0.1-0.4-0.4-0.4-0.6c-0.1,0.1-0.6,0-0.9,0C221.1,194,221.7,194.6,222.4,194.2z"/>
		<path class="st2" d="M228.6,193.5c0.1,0.3,0.1,0.6,0,0.8c0.5,0.2,1.2-1,0.6-1.5C229.1,193,228.8,193.4,228.6,193.5z"/>
		<path class="st2" d="M226.9,195.5c0.1,0.3,0,0.6-0.1,0.9c0.4-0.1,1.2-0.4,0.9-1.4C227.6,195.2,227.1,195.5,226.9,195.5z"/>
		<path class="st4" d="M218,185.1c0.4,0.8,1,1.9,0.8,2.6c-0.6,0.4-1.7,1.9-1.8,2.4c-0.5-1.4-2.9-1.7-2.7-3.2
			c0.3-0.8,1.5-2.7,1.7-3.1C216.9,183.6,217.6,184.2,218,185.1z"/>
		<path class="st2" d="M212.3,170.7c-0.2-0.2-0.7-0.6-1.3-0.6c-0.9,0-1.2,0.8-1.8,1c-0.6,0.1-1-0.1-1.4-0.5c0,0.3,0.4,0.7,0.7,0.9
			c0.7,0.2,1.4-0.3,1.6-0.5C210.9,170.3,211.7,170.4,212.3,170.7z"/>
		<path class="st4" d="M195.3,168.8c0.5,0.2,3.3,0.4,4.6,0.2c-0.2,0.2-0.4,0.3-0.6,0.6v0.1c0.1,0.3,0.7,1.3,1.6,1.6
			c-0.7,0.1-1.1,0.4-1.4,0.7c-0.5,0-1.4,0-1.7-0.1c-0.9,0-2.5-1.1-2.5-2.5C195.1,169.5,195.1,168.8,195.3,168.8z"/>
		<path class="st4" d="M195.1,174c0.5,0,2.5-0.5,3.7-1c0.4,0.4,1.4,1.1,2.3,1.1c-1.2,0.3-1.7,1.2-1.8,1.8c-0.6,0.3-1.5,0.6-2.5,0.4
			c-0.5-0.1-1.6-1-1.7-1.8C195,174.5,195,174,195.1,174z"/>
		<path class="st4" d="M195.2,179.3c0.6,0,3.1-1.7,4.4-2.7c0.2,0.1,0.4,0.2,0.7,0.2c0.3,0.1,0.9,0,1,0c-0.1,0.2-0.1,0.3-0.3,0.6
			c-0.3,0.7-0.4,1.4-0.4,1.7l0.1,0.1c0,0,0.3,0,0.3,0c-1,0.9-2.4,1.7-2.5,1.8c-1.1,0.4-2.7,0-3.3-1.3
			C195.1,179.6,195.1,179.5,195.2,179.3z"/>
		<path class="st4" d="M201.3,180c0.2-0.2,0.5-0.5,0.7-0.8c0.3-0.1,1-0.3,1.2-0.4c-0.5,0.9-0.5,2-0.2,2.7l0.1,0.1
			c0.5,0,0.7,0,1.1-0.3c0,0-0.3,0.3-0.3,0.3c-0.3,0.6-3.2,4-4.9,4.9c-1.8,0.8-3.2,0-3.6-0.7c0-0.1-0.3-0.4,0.1-0.6
			C197.1,184.4,201.3,180.2,201.3,180z"/>
		<path class="st4" d="M205.3,180.8c0.1,0.7,0.4,1.5,0.7,1.9l0.2,0.2c0.8-0.4,1.7-1.1,1.8-1.5c-0.8,2.6-2.5,4.7-3,5.1
			c-1,0.8-2.8,0.5-3.3,0.3c-0.2-0.1-0.6-0.4-0.3-0.6C202.2,185.8,204.3,182.8,205.3,180.8z"/>
		<path class="st4" d="M199.1,172.9c0.1-0.4,0.9-1.4,2.3-1.4c0.2,0,0.3-0.2,0-0.3c-1,0-1.7-1.1-1.9-1.5c0.6-0.8,1.4-0.8,2.4-0.7
			c0.2,0,0.3-0.2,0.1-0.3c-0.1-0.1-4.6-0.3-5.8-2c-0.2-0.2-0.6-1.2-0.5-2.2c0,0,0-0.3,0.4,0c1,0.6,4.2,1.5,6.6,1.4
			c0,0,2.3-0.7,3.1,0.5c0.2,0.3,0.5,1.4,0.4,1.8c0,0.8-0.6,1.7-1.1,2.5c-1.2,1.6-0.6,3.2-0.2,4.2c1,1.6,2.6,1.8,4.3,1.3
			c-0.1,0.1-0.7,0.7-1.1,1c-0.3,0.5-0.6,1-0.5,2.1c0,0.6,0.4,1.5,0.4,1.5c-0.1,0.2-0.9,1.2-1.8,1.6c-0.5-0.6-0.9-1.6-0.6-2.4
			c0-0.3-0.1-0.3-0.3-0.1c-0.4,0.8-1.3,1.4-2.3,1.4c-0.2-0.7-0.2-1.9,0.4-2.7c0.1-0.2,0-0.3-0.2-0.3c-0.4,0.5-1.8,0.7-2.5,0.6
			c0-0.7,0.2-1.9,1.2-2.4c0.1-0.1,0.1-0.3-0.1-0.2c-0.5,0.3-1.6,0.6-2.5-0.1c0-0.6,0.5-1.7,2-2c0.2-0.1,0.3-0.3,0-0.3
			C200.5,174,199.5,173.4,199.1,172.9z"/>
		<path class="st4" d="M229.8,168.8c-0.5,0.2-3.3,0.4-4.5,0.2c0.2,0.2,0.4,0.3,0.6,0.6v0.1c-0.1,0.3-0.7,1.3-1.6,1.6
			c0.7,0.1,1.1,0.4,1.4,0.7c0.5,0,1.4,0,1.7-0.1c0.9,0,2.5-1.1,2.5-2.5C230.1,169.5,230.1,168.8,229.8,168.8z"/>
		<path class="st4" d="M230.1,174c-0.5,0-2.5-0.5-3.7-1c-0.4,0.4-1.4,1.1-2.3,1.1c1.2,0.3,1.7,1.2,1.8,1.8c0.6,0.3,1.5,0.6,2.5,0.4
			c0.5-0.1,1.6-1,1.7-1.8C230.2,174.5,230.1,174,230.1,174z"/>
		<path class="st4" d="M230,179.3c-0.6,0-3.1-1.7-4.4-2.7c-0.2,0.1-0.4,0.2-0.7,0.2c-0.3,0.1-0.9,0-1,0c0,0.2,0.1,0.3,0.3,0.6
			c0.3,0.7,0.4,1.4,0.3,1.7l-0.1,0.1c0,0-0.3,0-0.3,0c1,0.9,2.4,1.7,2.5,1.8c1.1,0.4,2.7,0,3.3-1.3C230,179.6,230.1,179.5,230,179.3
			z"/>
		<path class="st4" d="M223.9,180c-0.2-0.2-0.5-0.5-0.7-0.8c-0.3-0.1-1-0.3-1.2-0.4c0.5,0.9,0.5,2,0.2,2.7l-0.1,0.1
			c-0.5,0-0.7,0-1.1-0.3c0,0,0.3,0.3,0.3,0.3c0.3,0.6,3.2,4,4.9,4.9c1.8,0.8,3.3,0,3.7-0.7c0-0.1,0.3-0.4-0.1-0.6
			C228.1,184.4,223.9,180.2,223.9,180z"/>
		<path class="st4" d="M219.9,180.8c-0.1,0.7-0.4,1.5-0.7,1.9l-0.1,0.2c-0.9-0.4-1.7-1.1-1.8-1.5c0.8,2.6,2.5,4.7,3,5.1
			c1,0.8,2.8,0.5,3.3,0.3c0.2-0.1,0.6-0.4,0.3-0.6C223,185.8,220.9,182.8,219.9,180.8z"/>
		<path class="st4" d="M226.1,172.9c-0.2-0.4-0.9-1.4-2.3-1.4c-0.2,0-0.3-0.2,0-0.3c1,0,1.7-1.1,1.9-1.5c-0.6-0.8-1.5-0.8-2.4-0.7
			c-0.3,0-0.3-0.2-0.1-0.3c0.1-0.1,4.6-0.3,5.8-2c0.2-0.2,0.6-1.2,0.5-2.2c0,0,0-0.3-0.4,0c-1,0.6-4.2,1.5-6.6,1.4
			c0,0-2.3-0.7-3.1,0.5c-0.2,0.3-0.5,1.4-0.4,1.8c0,0.8,0.6,1.7,1.1,2.5c1.2,1.6,0.6,3.2,0.2,4.2c-0.3,0.5-1.1,1.7-3.4,1.5
			c-0.2,0-0.8-0.2-1-0.2c0,0,0.6,0.4,1,0.9c0.3,0.5,0.7,1.2,0.7,2.2c0,0.6-0.3,1.5-0.3,1.5c0.1,0.2,0.9,1.2,1.8,1.6
			c0.5-0.6,0.9-1.6,0.6-2.4c-0.1-0.3,0.1-0.3,0.3-0.1c0.4,0.8,1.3,1.4,2.3,1.4c0.3-0.7,0.2-1.9-0.4-2.7c-0.1-0.2,0-0.3,0.2-0.3
			c0.4,0.5,1.8,0.7,2.5,0.6c0-0.7-0.3-1.9-1.2-2.4c-0.2-0.1-0.1-0.3,0.1-0.2c0.5,0.3,1.6,0.6,2.5-0.1c-0.1-0.6-0.5-1.7-2-2
			c-0.2-0.1-0.3-0.3,0-0.3C224.7,174,225.7,173.4,226.1,172.9z"/>
	</g>
	<g>
		<g>
			<g>
				<path class="st5" d="M164.7,195.1c12.6,11.4,30.7,18.8,47.9,18.5c17.4,0.2,35-7.2,47.9-18.5l2.4,2.4c1.6-2.9,3.8-1.4,5.4-3.8
					c0.5-3.4,2-5.6,3.9-5.4c3.9,0.9,4.1,0,4.1-2.2c0.5-2.3-3.9-6.5-0.7-8.8c0.7-0.7,2.2-1.1,3-2.7c0.9-4.7,1.1-5.7,5-6.3
					c4.3-1.6,0.9-6.3,0.4-7.5c-1.8-5.6,3-3,1.8-10.8c-0.4-4.7,4.8-2.9,5.6-4.7c0.7-2.7,2-4.1,5.9-3c1.8,0.2,1.4-1.4,3.6-2.2
					c2.3-0.9,3,1.6,6.1-0.4c3.7-1.5,5,1.6,6.4,1.5l111,0l-6.2,15.3H308.7l-3.6,5.4H416l-5.8,14.4h-103l-2.7,5.4l103.5,0l-5.8,14.4
					H297.9l-2.3,5.4h104.5l-6,14.8h-111c-3.8,3.8-7.5,7.2-13.2,11.3h17.2l-12.7,7.9h15.9l5.7-3.2v10.9h-18.8l5.2-3.4h-27.5l12.5-7
					H262c-13.8,7.4-28.8,11.8-49.4,12.2c-20.6-0.4-35.6-4.8-49.4-12.2h-5.4l12.5,7h-27.5l5.2,3.4h-18.8v-10.9l5.7,3.2h15.9
					l-12.7-7.9h17.2c-5.7-4.1-9.4-7.5-13.2-11.3l-111,0l-6-14.8l104.5,0l-2.3-5.4H23l-5.8-14.4h103.5l-2.7-5.4H15l-5.8-14.4h110.9
					l-3.5-5.4H7l-6.2-15.3l111.1,0c1.3,0.1,2.5-3,6.3-1.5c3,2,3.8-0.5,6.1,0.4c2.2,0.7,1.8,2.3,3.6,2.2c3.9-1.1,5.2,0.4,5.9,3
					c0.7,1.8,5.9,0,5.6,4.7c-1.3,7.7,3.6,5.2,1.8,10.8c-0.5,1.3-3.9,5.9,0.4,7.5c3.9,0.5,4.1,1.6,5,6.3c0.9,1.6,2.3,2,3,2.7
					c3.2,2.3-1.3,6.5-0.7,8.8c0,2.2,0.2,3,4.1,2.2c2-0.2,3.4,2,3.9,5.4c1.6,2.3,3.8,0.9,5.4,3.8L164.7,195.1z"/>
				<path class="st6" d="M164.7,195.1c12.6,11.4,30.7,18.8,47.9,18.5c17.4,0.2,35-7.2,47.9-18.5l2.4,2.4c1.6-2.9,3.8-1.4,5.4-3.8
					c0.5-3.4,2-5.6,3.9-5.4c3.9,0.9,4.1,0,4.1-2.2c0.5-2.3-3.9-6.5-0.7-8.8c0.7-0.7,2.2-1.1,3-2.7c0.9-4.7,1.1-5.7,5-6.3
					c4.3-1.6,0.9-6.3,0.4-7.5c-1.8-5.6,3-3,1.8-10.8c-0.4-4.7,4.8-2.9,5.6-4.7c0.7-2.7,2-4.1,5.9-3c1.8,0.2,1.4-1.4,3.6-2.2
					c2.3-0.9,3,1.6,6.1-0.4c3.7-1.5,5,1.6,6.4,1.5l111,0l-6.2,15.3H308.7l-3.6,5.4H416l-5.8,14.4h-103l-2.7,5.4l103.5,0l-5.8,14.4
					H297.9l-2.3,5.4h104.5l-6,14.8h-111c-3.8,3.8-7.5,7.2-13.2,11.3L262,233c-13.8,7.4-28.8,11.8-49.4,12.2
					c-20.6-0.4-35.6-4.8-49.4-12.2l-7.9-5.2c-5.7-4.1-9.4-7.5-13.2-11.3l-111,0l-6-14.8l104.5,0l-2.3-5.4H23l-5.8-14.4h103.5
					l-2.7-5.4H15l-5.8-14.4h110.9l-3.5-5.4H7l-6.2-15.3l111.1,0c1.3,0.1,2.5-3,6.3-1.5c3,2,3.8-0.5,6.1,0.4c2.2,0.7,1.8,2.3,3.6,2.2
					c3.9-1.1,5.2,0.4,5.9,3c0.7,1.8,5.9,0,5.6,4.7c-1.3,7.7,3.6,5.2,1.8,10.8c-0.5,1.3-3.9,5.9,0.4,7.5c3.9,0.5,4.1,1.6,5,6.3
					c0.9,1.6,2.3,2,3,2.7c3.2,2.3-1.3,6.5-0.7,8.8c0,2.2,0.2,3,4.1,2.2c2-0.2,3.4,2,3.9,5.4c1.6,2.3,3.8,0.9,5.4,3.8L164.7,195.1z"
					/>
			</g>
			<path d="M165.1,194.7c6.3,5.7,14,10.4,22.3,13.6c8.1,3.1,16.8,4.8,25.2,4.7h0c8.4,0.1,16.9-1.6,24.9-4.7
				c8.3-3.2,16.1-7.9,22.7-13.7l0.4-0.3l0.4,0.4l1.9,1.9c0.9-1.2,1.8-1.5,2.8-1.8c0.8-0.2,1.5-0.5,2.1-1.3c0.3-1.8,0.8-3.2,1.5-4.2
				c0.8-1.1,1.8-1.6,3-1.5l0,0l0,0c1.8,0.4,2.7,0.4,3.1,0.2l0,0c0.3-0.2,0.3-0.9,0.3-1.8v-0.1l0-0.1c0.2-0.7-0.3-1.8-0.8-2.9
				c-1-2.2-2-4.5,0.3-6.2c0.3-0.3,0.6-0.5,1-0.7c0.6-0.4,1.4-0.9,1.9-1.7l0,0c0.9-4.9,1.2-6,5.4-6.6c2.1-0.8,1.9-2.5,1.4-4
				c-0.3-0.8-0.7-1.5-1-2c-0.2-0.3-0.3-0.6-0.4-0.8l0,0l0,0c-0.9-2.9-0.2-3.9,0.7-5c0.8-1,1.7-2.1,1.1-5.9l0,0
				c-0.3-3.4,2-3.9,3.9-4.2c0.8-0.2,1.5-0.3,1.7-0.7c0.4-1.5,0.9-2.6,2-3.2c1-0.6,2.4-0.8,4.6-0.2c0.6,0.1,0.9-0.3,1.2-0.6
				c0.4-0.5,0.9-1.1,2.1-1.5c1.2-0.4,2-0.2,2.8,0.1c0.8,0.3,1.7,0.6,3.2-0.4l0,0l0.1,0c2.7-1.1,4.2,0,5.4,0.9
				c0.5,0.3,0.9,0.6,1.1,0.6h0l111,0h0.8l-0.3,0.8l-6.2,15.3l-0.1,0.4h-0.4H309l-2.8,4.3H416h0.8l-0.3,0.8l-5.8,14.4l-0.1,0.4h-0.4
				H307.6l-2.1,4.3l102.6,0h0.8l-0.3,0.8l-5.8,14.4l-0.1,0.4h-0.4H298.3l-1.8,4.3h103.6h0.8l-0.3,0.8l-6,14.8l-0.1,0.3h-0.4H283.3
				c-1.8,1.8-3.7,3.6-5.7,5.4c-1.8,1.5-3.7,3.1-6,4.8h15.5h1.9l-1.7,1l-11.1,6.9h13.8l5.6-3.2l0.8-0.5v1v10.9v0.6h-0.6h-18.8h-1.9
				l1.6-1l3.6-2.4h-25.6h-2.1l1.9-1l10.7-6h-3.1c-6.9,3.7-14.1,6.6-22.1,8.7c-8.1,2.1-17,3.3-27.4,3.5h0
				c-10.4-0.2-19.3-1.4-27.4-3.5c-8-2.1-15.2-5-22.1-8.7H160l10.7,6l1.9,1h-2.1h-25.6l3.6,2.4l1.6,1h-1.9h-18.8h-0.6v-0.6v-10.9v-1
				l0.8,0.5l5.6,3.2h13.8l-11.1-6.9l-1.7-1h1.9h15.5c-2.3-1.7-4.2-3.3-6-4.8c-2.1-1.8-3.9-3.6-5.7-5.4l-110.8,0h-0.4l-0.1-0.3
				l-6-14.8l-0.3-0.8h0.8l103.6,0l-1.8-4.3H23h-0.4l-0.1-0.4l-5.8-14.4l-0.3-0.8h0.8h102.6l-2.1-4.3H15h-0.4l-0.1-0.4l-5.8-14.4
				l-0.3-0.8h0.8h109.9l-2.8-4.3H7H6.6l-0.1-0.4l-6.2-15.3L0,140.9h0.8l111.1,0h0c0.2,0,0.6-0.3,1-0.6c1.1-0.9,2.7-2,5.5-0.9l0,0
				l0.1,0c1.5,1,2.4,0.7,3.2,0.4c0.8-0.3,1.6-0.5,2.8-0.1c1.2,0.4,1.7,1,2.1,1.5l0,0c0.3,0.4,0.6,0.7,1.2,0.6
				c2.1-0.6,3.5-0.4,4.6,0.2c1,0.6,1.6,1.8,2,3.2c0.2,0.4,0.9,0.5,1.7,0.7c1.9,0.4,4.1,0.8,3.9,4.2l0,0c-0.6,3.8,0.3,4.9,1.1,5.9
				c0.9,1.1,1.6,2,0.7,5l0,0l0,0c-0.1,0.2-0.2,0.5-0.4,0.8c-0.3,0.5-0.7,1.3-1,2c-0.6,1.5-0.7,3.2,1.4,4c4.2,0.6,4.5,1.7,5.4,6.6
				l0,0c0.5,0.9,1.3,1.4,1.9,1.7c0.4,0.2,0.7,0.4,1,0.7c2.3,1.7,1.2,4,0.3,6.2c-0.5,1.1-1,2.2-0.8,2.9l0,0.1v0.1
				c0,0.9,0,1.5,0.3,1.8l0,0c0.4,0.3,1.3,0.3,3.1-0.2l0,0l0,0c1.2-0.1,2.2,0.4,3,1.5c0.7,1,1.3,2.4,1.5,4.2c0.6,0.9,1.4,1.1,2.1,1.3
				c1,0.3,1.9,0.6,2.8,1.8l1.9-1.9l0.4-0.4L165.1,194.7L165.1,194.7z M187,209.4c-8.3-3.2-16-7.8-22.3-13.5l-2,2l-0.5,0.5l-0.4-0.6
				c-0.7-1.3-1.7-1.6-2.5-1.9c-1-0.3-1.9-0.6-2.8-1.8l-0.1-0.1l0-0.1c-0.3-1.6-0.7-3-1.4-3.8c-0.5-0.7-1.2-1.1-1.9-1.1
				c-2.1,0.5-3.3,0.4-3.9,0h0c-0.7-0.5-0.8-1.4-0.8-2.6c-0.2-1,0.3-2.2,0.9-3.5c0.8-1.8,1.7-3.7,0-4.9l0,0l0,0
				c-0.2-0.2-0.5-0.4-0.8-0.6c-0.8-0.5-1.7-1-2.3-2.2l0-0.1l0-0.1l0-0.1c-0.8-4.3-1-5.3-4.5-5.7l-0.1,0l-0.1,0
				c-3-1.1-2.8-3.4-2.1-5.4c0.3-0.8,0.7-1.6,1-2.2c0.1-0.3,0.3-0.5,0.3-0.7c0.8-2.3,0.2-3.1-0.5-3.9c-0.9-1.1-2-2.5-1.3-6.7
				c0.2-2.4-1.5-2.8-3-3c-1.1-0.2-2.2-0.4-2.6-1.4l0,0l0,0c-0.3-1.2-0.8-2.1-1.5-2.6c-0.8-0.5-1.9-0.5-3.7,0l0,0l0,0
				c-1.2,0.1-1.7-0.4-2.2-1h0c-0.3-0.4-0.7-0.9-1.6-1.2l0,0c-0.8-0.3-1.4-0.1-2,0.1c-1.1,0.4-2.2,0.7-4.1-0.5
				c-2.2-0.9-3.4,0.1-4.4,0.8c-0.6,0.5-1.1,0.9-1.8,0.8L1.6,142l5.7,14.1h109.2h0.3l0.2,0.3l3.5,5.4l0.6,0.9h-1H10l5.4,13.3h102.6
				h0.3l0.2,0.3l2.7,5.4l0.4,0.8h-0.9H18l5.4,13.3h103.9h0.4l0.1,0.3l2.3,5.4l0.3,0.8h-0.8l-103.6,0l5.5,13.7l110.6,0h0.2l0.2,0.2
				c1.9,1.9,3.7,3.7,5.8,5.5c2.1,1.8,4.4,3.7,7.3,5.8l1.4,1h-1.7h-15.3l11.1,6.9l1.7,1h-1.9H135h-0.1l-0.1-0.1l-4.9-2.8v9.4h16.4
				l-3.6-2.4l-1.6-1h1.9h25.4l-10.7-6l-1.9-1h2.1h5.4h0.1l0.1,0.1c6.9,3.7,14,6.6,22,8.7c8,2.1,16.9,3.3,27.1,3.5
				c10.3-0.2,19.1-1.4,27.1-3.5c8-2.1,15.2-5,22-8.7l0.1-0.1h0.1h5.4h2.1l-1.9,1l-10.7,6h25.4h1.9l-1.6,1l-3.6,2.4h16.4v-9.4
				l-4.9,2.8l-0.1,0.1h-0.1h-15.9h-1.9l1.7-1l11.1-6.9h-15.3h-1.7l1.4-1c2.8-2,5.2-3.9,7.3-5.8c2.1-1.8,4-3.6,5.9-5.5l0.2-0.2h0.2
				h110.6l5.5-13.7H295.6h-0.8l0.3-0.8l2.3-5.4l0.1-0.3h0.4h103.9l5.4-13.3l-102.7,0l-0.9,0l0.4-0.8l2.7-5.4l0.2-0.3h0.3h102.6
				l5.4-13.3H305.1h-1l0.6-0.9l3.6-5.4l0.2-0.3h0.3h109.1l5.7-14.1l-110.2,0c-0.7,0.1-1.2-0.3-1.9-0.8c-0.9-0.7-2.2-1.6-4.3-0.8
				c-1.9,1.2-3,0.9-4.1,0.5c-0.6-0.2-1.2-0.4-2-0.1l0,0c-0.9,0.3-1.3,0.8-1.6,1.2c-0.5,0.6-1,1.1-2.2,1l0,0l0,0
				c-1.8-0.5-3-0.4-3.7,0c-0.8,0.5-1.2,1.4-1.5,2.6l0,0l0,0c-0.4,0.9-1.4,1.1-2.6,1.4c-1.4,0.3-3.1,0.6-3,3c0.7,4.2-0.4,5.6-1.3,6.7
				c-0.7,0.8-1.2,1.5-0.5,3.9c0.1,0.2,0.2,0.4,0.3,0.7c0.3,0.6,0.7,1.3,1,2.2c0.8,2,0.9,4.3-2.1,5.4l-0.1,0l-0.1,0
				c-3.5,0.5-3.7,1.5-4.5,5.7l0,0.1l0,0.1l0,0.1c-0.7,1.2-1.6,1.8-2.3,2.2c-0.3,0.2-0.6,0.4-0.8,0.6l0,0l0,0c-1.6,1.2-0.8,3.1,0,4.9
				c0.6,1.3,1.1,2.5,0.9,3.5c0,1.2-0.1,2.1-0.8,2.6h0c-0.7,0.5-1.8,0.5-3.9,0c-0.7-0.1-1.4,0.3-1.9,1.1c-0.6,0.9-1.1,2.2-1.4,3.8
				l0,0.1l-0.1,0.1c-0.9,1.2-1.8,1.5-2.8,1.8c-0.9,0.3-1.8,0.5-2.5,1.9l-0.4,0.6l-0.5-0.5l-2-2c-6.5,5.7-14.3,10.3-22.6,13.5
				c-8.1,3.1-16.7,4.9-25.3,4.7C204,214.3,195.2,212.5,187,209.4z"/>
		</g>
		<g>
			<g>
				<g>
					<path class="st5" d="M123.1,143.4c1.1,0.9,0.4,2,2.9,2.5c1.6,0.2,2.3-1.1,4.3,0.4c1.3,1.4,0.2,2,1.6,3c1.1,0.7,2.2-0.4,3.8,0.7
						c1.1,0.7,0,3.2,0.4,5.2c-0.5,1.8,3,3.4,2.3,4.7c0,0.2-0.7,2-1.4,1.1c-4.3-3.9-9-10.6-16.8-13.1c-0.2,0.2-0.2,0.2-0.2,0.4
						c5.7,3.4,12.9,9.5,15.4,16c-0.9,0.4-0.4,0-1.3,0.7c-3-1.3-1.3-3-5.7-2.3c-2.7,0.2-3.6-0.4-3.8-2c-0.5-5.2-3.8-2.3-4.8-4.1
						c-0.5-1.8,0.2-2.9-1.1-3.9c-0.9-0.9-2.7-0.7-3.2-2c-0.7-0.9,0.4-2.2,0-3.2c0-1.8-0.9-1.6-1.4-2.7c-0.4-1.6,0.5-2.9,3.8-1.6
						C121.3,144.9,120.1,142.5,123.1,143.4z"/>
					<path d="M123.3,143.2c0.4,0.4,0.6,0.7,0.8,1.1c0.2,0.5,0.5,1,1.9,1.4c0.5,0.1,0.9-0.1,1.3-0.2c0.9-0.2,1.7-0.4,3.1,0.6l0,0l0,0
						c0.7,0.8,0.7,1.3,0.8,1.8c0.1,0.4,0.1,0.8,0.7,1.2c0.4,0.3,0.8,0.2,1.3,0.2c0.7-0.1,1.5-0.1,2.5,0.5l0,0c0.8,0.5,0.7,1.7,0.5,3
						c-0.1,0.8-0.2,1.7,0,2.5l0,0.1l0,0.1c-0.2,0.8,0.5,1.6,1.2,2.3c0.8,0.8,1.5,1.6,1.1,2.4c-0.1,0.2-0.2,0.6-0.4,0.9
						c-0.1,0.2-0.3,0.3-0.4,0.5c-0.2,0.1-0.4,0.2-0.7,0.1c-0.2,0-0.3-0.1-0.4-0.3c-1-0.9-2.1-2-3.1-3.2c-3.3-3.4-7.1-7.4-12.5-9.5
						c2.9,1.8,6.1,4.3,8.8,7.1c2.5,2.6,4.6,5.4,5.7,8.4l0.1,0.3l-0.3,0.1c-0.3,0.1-0.4,0.2-0.5,0.2c0,0-0.1,0-0.1,0
						c0,0-0.1,0.1-0.2,0.2l0,0c-0.1,0.1-0.2,0.1-0.4,0.3l-0.1,0.1l-0.2-0.1c-1.3-0.5-1.7-1.1-2.1-1.6c-0.5-0.7-0.9-1.1-3.4-0.7l0,0
						l0,0c-1.4,0.1-2.4,0-3-0.4c-0.7-0.4-1-1-1.1-1.9v0c-0.3-3-1.6-3.1-2.7-3.1c-0.8,0-1.6-0.1-2.1-0.9l0,0l0,0
						c-0.2-0.7-0.2-1.3-0.3-1.9c0-0.8-0.1-1.4-0.7-1.9l0,0c-0.3-0.3-0.8-0.5-1.3-0.7c-0.8-0.3-1.6-0.5-1.9-1.4
						c-0.5-0.6-0.3-1.3-0.1-2c0.1-0.5,0.2-0.9,0.1-1.3l0-0.1v0c0-1-0.3-1.3-0.7-1.6c-0.3-0.2-0.5-0.5-0.7-0.9l0,0l0,0
						c-0.1-0.5-0.1-1,0.1-1.5c0.1-0.2,0.2-0.5,0.4-0.6c0.2-0.2,0.5-0.3,0.8-0.4c0.7-0.1,1.6,0,2.9,0.5l0,0l0,0
						c1.8,0.9,2.3,0.7,2.8,0.4c0.5-0.3,1.1-0.5,2.6-0.1L123.3,143.2L123.3,143.2L123.3,143.2z M123.5,144.6
						c-0.1-0.3-0.3-0.6-0.6-0.8c-1.2-0.3-1.6-0.1-2,0.1c-0.6,0.3-1.2,0.6-3.3-0.4c-1.2-0.5-2-0.6-2.5-0.4c-0.2,0-0.4,0.1-0.5,0.2
						c-0.1,0.1-0.2,0.2-0.3,0.4c-0.1,0.3-0.1,0.6,0,1c0.2,0.3,0.4,0.5,0.6,0.7c0.5,0.4,0.9,0.8,0.9,2.1c0.2,0.6,0,1.1-0.1,1.6
						c-0.1,0.5-0.3,1.1,0,1.4l0,0l0,0c0.3,0.6,0.9,0.8,1.6,1c0.6,0.2,1.2,0.4,1.6,0.8c0.9,0.7,0.9,1.5,0.9,2.4c0,0.5,0,1,0.2,1.7
						c0.3,0.5,0.9,0.5,1.5,0.5c1.4,0.1,3,0.1,3.3,3.7h0c0.1,0.7,0.3,1.2,0.8,1.4c0.5,0.3,1.4,0.4,2.6,0.3c2.9-0.5,3.4,0.1,4,0.9
						c0.3,0.4,0.7,0.9,1.7,1.4l0.2-0.2v0c0.1-0.1,0.2-0.2,0.3-0.2c0.1,0,0.1-0.1,0.2-0.1c0,0,0.1,0,0.2-0.1
						c-1.1-2.8-3.1-5.4-5.5-7.9c-3-3.1-6.6-5.8-9.7-7.6l-0.2-0.1v-0.2c0-0.3,0-0.3,0.3-0.6l0.1-0.1l0.2,0.1
						c6.1,1.9,10.3,6.3,13.8,10c1.1,1.1,2.1,2.2,3.1,3.1l0,0l0,0c0.1,0.1,0.1,0.1,0.1,0.1c0,0,0.1,0,0.1,0c0.1-0.1,0.2-0.2,0.3-0.3
						c0.2-0.3,0.3-0.6,0.3-0.7v-0.1l0-0.1c0.2-0.4-0.3-1-1-1.7c-0.8-0.9-1.7-1.8-1.4-2.9c-0.1-0.8,0-1.7,0-2.6
						c0.1-1.1,0.2-2-0.3-2.3l0,0c-0.8-0.5-1.5-0.5-2.1-0.4c-0.6,0-1.1,0.1-1.7-0.3l0,0c-0.9-0.6-0.9-1.1-1-1.7
						c-0.1-0.4-0.1-0.8-0.6-1.4c-1.1-0.8-1.8-0.6-2.5-0.5c-0.5,0.1-1,0.2-1.6,0.2l0,0l0,0C124.1,145.9,123.8,145.2,123.5,144.6z"/>
				</g>
				<g>
					<path class="st5" d="M128.2,168.6c1.4,0.7,0.9,1.8,3.4,1.8c1.8-0.4,2-1.8,4.3-0.9c1.6,1.1,0.7,1.8,2.5,2.5
						c1.3,0.5,1.8-0.9,3.8-0.2c1.3,0.2,1.1,3.4,1.6,4.8c0,1.8,3.9,2.5,3.6,3.9c0,0.2-0.2,2-1.3,1.4c-5-2.7-11.3-7.9-19.5-8.2
						c-0.2,0-0.2,0.2,0,0.4c6.3,1.8,14.9,5.7,18.8,11.3c-0.7,0.7-0.4,0.2-1.1,1.1c-3.2-0.4-2.7-2.7-7-0.9c-2.5,0.9-3.4,0.7-4.1-0.9
						c-1.8-4.8-4.1-1.3-5.7-2.9c-0.9-1.4-0.5-2.7-2-3.4c-1.1-0.5-2.3,0.4-3.2-0.9c-0.9-0.5-0.2-2.2-0.9-3c-0.5-1.8-0.7-1.4-1.6-2.2
						c-0.7-1.6-0.2-3,3.2-2.7C126.9,170.6,125.1,168.6,128.2,168.6z"/>
					<path d="M128.3,168.3c0.6,0.3,0.9,0.6,1.1,0.9c0.4,0.4,0.7,0.8,2.1,0.8c0.6-0.1,1-0.4,1.4-0.6c0.8-0.5,1.5-0.9,3.1-0.3l0,0l0,0
						c0.8,0.5,1,1,1.3,1.4c0.2,0.4,0.3,0.7,1.2,1l0,0c0.4,0.2,0.8,0.1,1.2-0.1c0.6-0.2,1.3-0.5,2.5-0.1c1,0.2,1.3,1.7,1.5,3.2
						c0.1,0.7,0.2,1.4,0.4,1.8l0,0.1v0.1c0,0.7,0.9,1.3,1.8,1.9c1,0.6,2,1.2,1.8,2.1c0,0.2-0.1,0.7-0.3,1.2
						c-0.1,0.2-0.2,0.3-0.3,0.4v0c-0.2,0.1-0.4,0.2-0.6,0.2c-0.2,0-0.3,0-0.5-0.1l0,0c-1.1-0.6-2.3-1.3-3.6-2.1
						c-4-2.5-8.7-5.4-14.4-6c3.2,1,6.9,2.6,10.2,4.6c3,1.8,5.7,4,7.5,6.5l0.2,0.2l-0.2,0.2c-0.3,0.3-0.4,0.4-0.5,0.5
						c-0.1,0.1-0.1,0.1-0.5,0.6l-0.1,0.1l-0.2,0c-1.3-0.1-2-0.6-2.6-1c-0.9-0.6-1.7-1-4.2,0l0,0c-1.3,0.5-2.2,0.7-2.9,0.5
						c-0.7-0.2-1.2-0.7-1.6-1.6l0,0c-1-2.8-2.2-2.5-3.3-2.3c-0.8,0.2-1.6,0.3-2.4-0.4l0,0l0,0c-0.4-0.6-0.5-1.1-0.7-1.6
						c-0.2-0.7-0.4-1.3-1.2-1.7l0,0c-0.4-0.2-0.8-0.2-1.2-0.2c-0.8,0-1.5,0-2.1-0.8c-0.6-0.4-0.6-1-0.6-1.7c0-0.5,0-1-0.3-1.4l0,0
						l0-0.1c-0.4-1.2-0.5-1.3-0.9-1.6c-0.2-0.1-0.3-0.2-0.6-0.4l-0.1,0l0-0.1c-0.2-0.5-0.3-1-0.3-1.5c0-0.3,0.1-0.6,0.3-0.8v0
						c0.2-0.2,0.4-0.4,0.8-0.6c0.6-0.3,1.5-0.4,2.8-0.2l0,0l0,0c2,0.5,2.4,0.1,2.8-0.3c0.4-0.4,0.9-0.8,2.3-0.8L128.3,168.3
						L128.3,168.3L128.3,168.3z M128.9,169.7c-0.2-0.2-0.4-0.5-0.9-0.7c-1.2,0-1.5,0.3-1.8,0.6c-0.5,0.5-1,1-3.4,0.4
						c-1.1-0.1-1.9,0-2.4,0.2c-0.2,0.1-0.4,0.2-0.5,0.4l0,0c-0.1,0.1-0.2,0.3-0.2,0.5c0,0.3,0,0.7,0.2,1.1c0.2,0.1,0.3,0.2,0.5,0.3
						c0.5,0.3,0.8,0.5,1.2,1.9c0.4,0.5,0.4,1.1,0.4,1.7c0,0.5,0,1,0.4,1.2l0.1,0l0,0.1c0.4,0.6,1,0.6,1.6,0.6c0.5,0,1,0,1.5,0.2v0
						c1,0.5,1.2,1.2,1.5,2.1c0.1,0.4,0.3,0.9,0.6,1.4c0.5,0.5,1.1,0.3,1.8,0.2c1.4-0.3,2.8-0.5,4,2.7c0.3,0.7,0.7,1.1,1.2,1.2
						c0.6,0.1,1.4-0.1,2.6-0.5c2.8-1.2,3.7-0.6,4.8,0c0.5,0.3,1.2,0.7,2.2,0.9c0.3-0.4,0.4-0.5,0.5-0.6c0.1,0,0.1-0.1,0.3-0.2
						c-1.7-2.3-4.3-4.4-7.1-6.1c-3.7-2.2-7.9-3.9-11.4-4.9l-0.1,0l-0.1-0.1c-0.1-0.1-0.2-0.2-0.2-0.3h0c0-0.1,0-0.2,0-0.3
						c0-0.1,0.1-0.2,0.2-0.3h0c0.1,0,0.2-0.1,0.2-0.1l0,0c6.5,0.3,11.7,3.5,16.1,6.2c1.3,0.8,2.4,1.5,3.5,2.1c0.1,0,0.2,0.1,0.2,0.1
						c0.1,0,0.1,0,0.2-0.1l0,0c0.1-0.1,0.1-0.1,0.2-0.2c0.2-0.4,0.2-0.8,0.2-0.9v0l0,0c0.1-0.5-0.6-0.9-1.5-1.4
						c-1-0.6-2.1-1.3-2.1-2.4c-0.2-0.5-0.3-1.2-0.4-1.9c-0.2-1.3-0.4-2.6-1-2.7l0,0l0,0c-1-0.4-1.6-0.1-2.1,0.1
						c-0.5,0.2-1,0.4-1.7,0.1c-1.1-0.4-1.3-0.9-1.5-1.4c-0.2-0.3-0.4-0.7-1-1.2c-1.3-0.5-1.9-0.2-2.5,0.2c-0.4,0.3-0.9,0.6-1.6,0.7
						l0,0h0C129.8,170.7,129.4,170.3,128.9,169.7z"/>
				</g>
				<g>
					<path class="st5" d="M137.7,191c1.6,0.4,1.3,1.6,3.8,0.9c1.6-0.5,1.6-2,3.9-1.6c1.8,0.9,1.1,1.8,3,2.2c1.3,0.2,1.6-1.3,3.6-1.1
						c1.3,0.2,1.6,3.2,2.5,4.7c0.4,1.6,4.3,1.6,4.3,3c0,0.2,0,2-0.9,1.6c-5.6-1.6-12.7-5.6-21-4.5c0,0.2,0,0.4,0.2,0.5
						c6.5,0.4,15.6,2.9,20.8,7.5c-0.7,0.7-0.4,0.2-1.1,1.3c-3.2,0.2-2.9-2.7-6.8,0c-2.2,1.3-3.2,1.3-4.1-0.2
						c-2.7-4.3-4.3-0.5-6.1-1.6c-1.3-1.4-1.1-2.7-2.7-3.2c-1.3-0.2-2.2,0.9-3.2-0.2c-1.1-0.4-0.5-1.6-1.4-2.3
						c-0.7-1.6-1.4-1.3-2.3-2c-1.1-1.3-0.9-2.9,2.7-3C136.8,193,134.6,191.4,137.7,191z"/>
					<path d="M137.7,190.7c0.7,0.1,1,0.4,1.3,0.7c0.4,0.3,0.8,0.6,2.3,0.2v0c0.5-0.2,0.9-0.5,1.2-0.8c0.7-0.6,1.3-1.1,2.9-0.8l0,0
						l0,0c0.9,0.4,1.2,0.9,1.5,1.3c0.3,0.4,0.5,0.7,1.5,0.9l0,0c0.4,0.1,0.8-0.2,1.2-0.4c0.6-0.4,1.2-0.8,2.4-0.7l0,0
						c1,0.1,1.5,1.5,1.9,2.9c0.2,0.7,0.5,1.5,0.8,1.9l0,0l0,0.1c0.1,0.6,1.1,1,2.1,1.4c1.1,0.4,2.2,0.8,2.2,1.8c0,0.2,0,2.4-1.3,1.9
						c-1.4-0.4-2.8-0.9-4.3-1.5c-4.6-1.7-9.9-3.6-15.8-3.1c3.4,0.2,7.5,1.1,11.4,2.5c3.4,1.2,6.7,3,9.1,5.1l0.3,0.2l-0.2,0.2
						c-0.2,0.2-0.4,0.4-0.5,0.4h0c0,0-0.1,0.1-0.1,0.1c-0.1,0.1-0.2,0.2-0.5,0.7l0,0l0,0l-0.1,0.1l-0.2,0c-1.3,0.1-2.1-0.3-2.8-0.7
						c-0.9-0.5-1.6-0.9-3.9,0.6l0,0c-1.1,0.7-2,1-2.7,1c-0.8,0-1.3-0.4-1.9-1.3c-1.6-2.5-2.7-2-3.7-1.6c-0.7,0.3-1.5,0.6-2.2,0.1
						l0,0l0,0c-0.5-0.6-0.8-1.1-1-1.6c-0.4-0.7-0.6-1.2-1.5-1.5c-0.4-0.1-0.8,0.1-1.1,0.1h0c-0.7,0.2-1.4,0.4-2.2-0.4
						c-0.7-0.3-0.8-0.8-0.9-1.3c-0.1-0.4-0.2-0.8-0.5-1l-0.1,0l0-0.1c-0.4-1-0.8-1.1-1.3-1.3c-0.3-0.1-0.6-0.2-0.9-0.5l0,0l0,0
						c-0.3-0.3-0.5-0.7-0.6-1c-0.1-0.4-0.1-0.8,0.1-1.2c0.2-0.4,0.5-0.7,1-0.9c0.6-0.3,1.3-0.4,2.4-0.5l0,0c2,0,2.3-0.4,2.6-0.8
						c0.3-0.5,0.7-1,2.2-1.1L137.7,190.7L137.7,190.7L137.7,190.7z M138.7,191.9c-0.3-0.2-0.5-0.4-1-0.5c-1.2,0.2-1.5,0.5-1.7,0.9
						c-0.4,0.6-0.8,1.1-3.1,1.1v0c-1,0-1.7,0.2-2.2,0.4c-0.4,0.2-0.6,0.4-0.7,0.6c-0.1,0.2-0.1,0.5,0,0.7c0.1,0.3,0.2,0.5,0.4,0.8
						c0.3,0.2,0.5,0.3,0.7,0.4c0.6,0.2,1.1,0.5,1.6,1.6c0.4,0.4,0.6,0.9,0.7,1.3c0.1,0.4,0.2,0.8,0.6,0.9l0.1,0l0.1,0.1
						c0.5,0.5,1,0.4,1.6,0.2v0c0.4-0.1,0.9-0.2,1.4-0.2l0,0l0,0c1.1,0.4,1.5,1,1.9,1.8c0.2,0.4,0.5,0.9,0.9,1.4
						c0.5,0.3,1.1,0.1,1.6-0.2c1.3-0.5,2.7-1.1,4.5,1.9c0.4,0.6,0.8,0.9,1.3,0.9c0.6,0,1.3-0.3,2.4-0.9c2.6-1.7,3.4-1.3,4.5-0.7
						c0.6,0.3,1.2,0.7,2.3,0.6c0.2-0.4,0.3-0.5,0.4-0.6c0.1-0.1,0.1-0.1,0.2-0.2l0,0c0,0,0.1-0.1,0.2-0.1c-2.3-2-5.4-3.6-8.6-4.8
						c-4-1.4-8.2-2.3-11.7-2.5l-0.1,0l-0.1-0.1c-0.3-0.3-0.3-0.5-0.3-0.8V196l0.3,0c6.3-0.8,12,1.3,16.8,3c1.5,0.6,3,1.1,4.3,1.5
						l0,0l0,0c0.5,0.2,0.5-1.2,0.5-1.3c0-0.5-0.9-0.8-1.8-1.1c-1.1-0.4-2.2-0.8-2.5-1.8c-0.3-0.6-0.6-1.3-0.8-2
						c-0.4-1.2-0.8-2.3-1.4-2.4c-1-0.1-1.5,0.3-2,0.6c-0.5,0.3-0.9,0.6-1.6,0.5l0,0c-1.2-0.2-1.5-0.6-1.9-1.1
						c-0.2-0.3-0.5-0.7-1.2-1c-1.3-0.2-1.8,0.2-2.3,0.7c-0.4,0.3-0.8,0.7-1.5,0.9l0,0C139.8,192.7,139.3,192.4,138.7,191.9z"/>
				</g>
				<g>
					<path class="st5" d="M302.1,143.4c-1.1,0.9-0.4,2-2.9,2.5c-1.6,0.2-2.3-1.1-4.3,0.4c-1.3,1.4-0.2,2-1.6,3
						c-1.1,0.7-2.2-0.4-3.8,0.7c-1.1,0.7,0,3.2-0.4,5.2c0.5,1.8-3,3.4-2.3,4.7c0,0.2,0.7,2,1.4,1.1c4.3-3.9,9-10.6,16.8-13.1
						c0.2,0.2,0.2,0.2,0.2,0.4c-5.7,3.4-12.9,9.5-15.4,16c0.9,0.4,0.4,0,1.3,0.7c3-1.3,1.3-3,5.7-2.3c2.7,0.2,3.6-0.4,3.8-2
						c0.5-5.2,3.8-2.3,4.8-4.1c0.5-1.8-0.2-2.9,1.1-3.9c0.9-0.9,2.7-0.7,3.2-2c0.7-0.9-0.4-2.2,0-3.2c0-1.8,0.9-1.6,1.4-2.7
						c0.4-1.6-0.5-2.9-3.8-1.6C303.9,144.9,305.1,142.5,302.1,143.4z"/>
					<path d="M302.2,143.7c-0.3,0.3-0.4,0.5-0.5,0.8c-0.3,0.7-0.6,1.3-2.4,1.7l0,0l0,0c-0.6,0.1-1.1-0.1-1.6-0.2l0,0
						c-0.7-0.2-1.4-0.4-2.5,0.5c-0.5,0.6-0.6,1-0.6,1.4c-0.1,0.5-0.1,1-1,1.7l0,0c-0.6,0.4-1.1,0.3-1.7,0.3c-0.6,0-1.3-0.1-2.1,0.4
						c-0.5,0.3-0.4,1.3-0.3,2.3c0.1,0.8,0.2,1.7,0,2.6c0.3,1.1-0.6,2-1.4,2.9c-0.6,0.7-1.2,1.3-1,1.7l0,0.1v0.1
						c0,0.1,0.1,0.4,0.3,0.7c0.1,0.1,0.2,0.2,0.3,0.3c0,0,0.1,0.1,0.1,0c0,0,0.1-0.1,0.1-0.1l0,0l0,0c1-0.9,2-2,3.1-3.1
						c3.6-3.7,7.7-8.1,13.8-10l0.2-0.1l0.1,0.1c0.3,0.3,0.3,0.3,0.3,0.6v0.2l-0.2,0.1c-3.1,1.9-6.7,4.5-9.7,7.6
						c-2.3,2.4-4.3,5.1-5.5,7.9c0.1,0,0.1,0,0.2,0.1c0.1,0,0.1,0,0.2,0.1v0c0.1,0,0.1,0.1,0.3,0.2l0.2,0.2c1-0.4,1.4-0.9,1.7-1.4
						c0.7-0.8,1.1-1.4,4-0.9c1.3,0.1,2.1,0,2.6-0.3c0.5-0.3,0.7-0.7,0.8-1.4h0c0.4-3.6,1.9-3.6,3.3-3.7c0.6,0,1.2-0.1,1.5-0.5
						c0.2-0.6,0.2-1.2,0.2-1.7c0-0.9,0.1-1.6,0.9-2.4c0.4-0.4,1-0.6,1.6-0.8c0.7-0.2,1.3-0.5,1.6-1l0,0l0,0c0.3-0.4,0.2-0.9,0-1.4
						c-0.1-0.5-0.3-1.1-0.1-1.6c0-1.2,0.4-1.6,0.9-2.1c0.2-0.2,0.4-0.4,0.6-0.7c0.1-0.4,0.1-0.8,0-1.1c-0.1-0.1-0.1-0.3-0.3-0.4
						c-0.1-0.1-0.3-0.2-0.5-0.2c-0.6-0.1-1.4,0-2.5,0.4c-2.1,1-2.7,0.8-3.3,0.4C303.8,143.6,303.4,143.4,302.2,143.7L302.2,143.7z
						 M301.1,144.3c0.2-0.4,0.3-0.7,0.8-1.1l0.1,0l0.1,0c1.5-0.4,2.1-0.2,2.6,0.1c0.5,0.2,0.9,0.5,2.7-0.4l0,0l0,0
						c1.3-0.5,2.3-0.6,2.9-0.5c0.3,0.1,0.6,0.2,0.8,0.4c0.2,0.2,0.4,0.4,0.4,0.6c0.2,0.4,0.2,0.9,0.1,1.5l0,0l0,0
						c-0.2,0.4-0.5,0.7-0.7,0.9c-0.3,0.3-0.7,0.6-0.7,1.6v0l0,0.1c-0.1,0.4,0,0.9,0.1,1.3c0.2,0.7,0.3,1.4-0.1,2
						c-0.4,0.8-1.2,1.1-1.9,1.4c-0.5,0.2-1,0.3-1.3,0.7l0,0c-0.7,0.6-0.7,1.2-0.7,1.9c0,0.5,0,1.1-0.3,1.9l0,0l0,0
						c-0.5,0.8-1.3,0.8-2.1,0.9c-1.1,0-2.4,0.1-2.7,3.1v0c-0.1,0.9-0.4,1.5-1.1,1.9c-0.6,0.3-1.6,0.4-3,0.4l0,0l0,0
						c-2.6-0.4-2.9,0-3.4,0.7c-0.4,0.5-0.9,1.1-2.1,1.6l-0.2,0.1l-0.1-0.1c-0.2-0.1-0.3-0.2-0.4-0.3c-0.1-0.1-0.2-0.1-0.2-0.2l0,0
						c0,0,0,0-0.1,0c-0.1,0-0.2-0.1-0.5-0.2l-0.3-0.1l0.1-0.3c1.1-2.9,3.2-5.8,5.7-8.4c2.7-2.8,5.9-5.3,8.8-7.1
						c-5.4,2-9.2,6-12.5,9.5c-1.1,1.1-2.1,2.2-3.1,3.2c-0.1,0.2-0.3,0.3-0.4,0.3c-0.2,0.1-0.5,0-0.7-0.1c-0.2-0.1-0.3-0.3-0.4-0.5
						c-0.2-0.3-0.4-0.7-0.4-0.9c-0.4-0.8,0.3-1.6,1.1-2.4c0.7-0.7,1.5-1.6,1.2-2.3l0-0.1l0-0.1c0.1-0.8,0-1.6,0-2.5
						c-0.1-1.3-0.3-2.4,0.5-3c1-0.7,1.8-0.6,2.5-0.5c0.5,0,0.9,0.1,1.3-0.2c0.6-0.5,0.7-0.8,0.7-1.2c0.1-0.5,0.1-1,0.8-1.8l0,0l0,0
						c1.4-1,2.2-0.8,3.1-0.6v0c0.4,0.1,0.8,0.2,1.3,0.2C300.6,145.3,300.8,144.8,301.1,144.3z"/>
				</g>
				<g>
					<path class="st5" d="M297,168.6c-1.4,0.7-0.9,1.8-3.4,1.8c-1.8-0.4-2-1.8-4.3-0.9c-1.6,1.1-0.7,1.8-2.5,2.5
						c-1.3,0.5-1.8-0.9-3.8-0.2c-1.3,0.2-1.1,3.4-1.6,4.8c0,1.8-3.9,2.5-3.6,3.9c0,0.2,0.2,2,1.3,1.4c5-2.7,11.3-7.9,19.5-8.2
						c0.2,0,0.2,0.2,0,0.4c-6.3,1.8-14.9,5.7-18.8,11.3c0.7,0.7,0.4,0.2,1.1,1.1c3.2-0.4,2.7-2.7,7-0.9c2.5,0.9,3.4,0.7,4.1-0.9
						c1.8-4.8,4.1-1.3,5.7-2.9c0.9-1.4,0.5-2.7,2-3.4c1.1-0.5,2.3,0.4,3.2-0.9c0.9-0.5,0.2-2.2,0.9-3c0.5-1.8,0.7-1.4,1.6-2.2
						c0.7-1.6,0.2-3-3.2-2.7C298.3,170.6,300.1,168.6,297,168.6z"/>
					<path d="M297.1,168.9c-0.4,0.2-0.6,0.5-0.9,0.7c-0.5,0.6-0.9,1.1-2.6,1.1h0l0,0c-0.7-0.1-1.2-0.4-1.6-0.7
						c-0.6-0.4-1.2-0.7-2.5-0.2c-0.7,0.4-0.8,0.8-1,1.2c-0.2,0.5-0.5,0.9-1.5,1.4c-0.7,0.3-1.2,0.1-1.7-0.1
						c-0.5-0.2-1.1-0.4-2.1-0.1l0,0l0,0c-0.6,0.1-0.8,1.4-1,2.7c-0.1,0.7-0.2,1.4-0.4,1.9c0,1.1-1.1,1.7-2.1,2.4
						c-0.8,0.5-1.6,1-1.5,1.4l0,0v0c0,0.1,0,0.6,0.2,0.9c0,0.1,0.1,0.2,0.2,0.2c0,0,0.1,0.1,0.2,0.1c0.1,0,0.1,0,0.2-0.1
						c1.1-0.6,2.3-1.3,3.5-2.1c4.4-2.7,9.6-5.9,16.1-6.2l0,0c0.1,0,0.2,0,0.2,0.1l0,0c0.1,0.1,0.2,0.2,0.2,0.3c0,0.1,0,0.2,0,0.3v0
						c0,0.1-0.1,0.2-0.2,0.3l-0.1,0.1l-0.1,0c-3.5,1-7.7,2.6-11.4,4.9c-2.8,1.7-5.4,3.7-7.1,6.1c0.1,0.1,0.2,0.2,0.3,0.2
						c0.1,0.1,0.2,0.1,0.5,0.6c1-0.1,1.6-0.5,2.2-0.8l0,0c1.1-0.7,1.9-1.2,4.8,0c1.2,0.4,2,0.6,2.6,0.5c0.5-0.1,0.8-0.5,1.2-1.2
						c1.2-3.3,2.7-3,4-2.7c0.6,0.1,1.3,0.2,1.8-0.2c0.3-0.5,0.5-1,0.6-1.4c0.3-0.8,0.5-1.6,1.5-2.1v0c0.5-0.3,1-0.2,1.5-0.2
						c0.6,0,1.2,0,1.6-0.6l0-0.1l0.1,0c0.3-0.2,0.3-0.7,0.4-1.2c0-0.6,0-1.2,0.4-1.7c0.4-1.4,0.7-1.6,1.2-1.9
						c0.1-0.1,0.3-0.2,0.5-0.3c0.2-0.4,0.2-0.8,0.2-1.1c0-0.2-0.1-0.4-0.2-0.5v0c-0.1-0.2-0.3-0.3-0.5-0.4c-0.5-0.2-1.3-0.3-2.4-0.2
						c-2.4,0.5-2.8,0.1-3.4-0.4C298.6,169.3,298.3,169,297.1,168.9L297.1,168.9z M295.8,169.3c0.3-0.3,0.5-0.7,1.1-0.9l0.1,0h0.1
						c1.5,0,1.9,0.4,2.3,0.8c0.4,0.4,0.8,0.7,2.8,0.3l0,0l0,0c1.3-0.1,2.2,0,2.8,0.2c0.3,0.1,0.6,0.4,0.8,0.6l0,0
						c0.2,0.2,0.3,0.5,0.3,0.8c0,0.5-0.1,1-0.3,1.5l0,0.1l-0.1,0c-0.2,0.2-0.4,0.3-0.6,0.4c-0.4,0.2-0.6,0.4-0.9,1.6l0,0.1l0,0.1
						c-0.3,0.3-0.3,0.9-0.3,1.4c0,0.7,0,1.3-0.6,1.7c-0.6,0.8-1.4,0.8-2.1,0.8c-0.4,0-0.8,0-1.2,0.2l0,0c-0.8,0.4-0.9,1-1.2,1.7
						c-0.2,0.5-0.3,1-0.7,1.6l0,0l0,0c-0.7,0.7-1.5,0.6-2.4,0.4c-1.1-0.2-2.3-0.4-3.3,2.3l0,0c-0.4,0.9-0.9,1.4-1.6,1.6
						c-0.7,0.1-1.6,0-2.9-0.5l0,0c-2.5-1.1-3.3-0.6-4.2,0h0c-0.6,0.4-1.3,0.8-2.6,1l-0.2,0l-0.1-0.1c-0.4-0.5-0.4-0.5-0.5-0.6
						c-0.1-0.1-0.2-0.2-0.5-0.5l-0.2-0.2l0.2-0.2c1.8-2.5,4.5-4.7,7.5-6.5c3.3-2,7-3.5,10.2-4.6c-5.7,0.6-10.4,3.5-14.4,6
						c-1.3,0.8-2.4,1.5-3.6,2.1l0,0c-0.2,0.1-0.4,0.1-0.5,0.1c-0.2,0-0.4-0.1-0.6-0.2c-0.1-0.1-0.2-0.3-0.3-0.4
						c-0.2-0.4-0.3-1-0.3-1.2c-0.2-0.9,0.7-1.5,1.8-2.1c0.9-0.5,1.8-1.1,1.8-1.9v-0.1l0-0.1c0.2-0.5,0.3-1.1,0.4-1.8
						c0.2-1.5,0.4-3,1.5-3.2c1.2-0.4,1.9-0.1,2.5,0.1c0.4,0.2,0.8,0.3,1.2,0.1l0,0c0.8-0.3,1-0.7,1.2-1c0.2-0.4,0.4-0.9,1.3-1.4l0,0
						l0,0c1.6-0.6,2.3-0.2,3.1,0.3c0.4,0.2,0.8,0.5,1.4,0.6C295.1,170.1,295.4,169.7,295.8,169.3z"/>
				</g>
				<g>
					<path class="st5" d="M287.5,191c-1.6,0.4-1.3,1.6-3.8,0.9c-1.6-0.5-1.6-2-3.9-1.6c-1.8,0.9-1.1,1.8-3,2.2
						c-1.3,0.2-1.6-1.3-3.6-1.1c-1.3,0.2-1.6,3.2-2.5,4.7c-0.4,1.6-4.3,1.6-4.3,3c0,0.2,0,2,0.9,1.6c5.6-1.6,12.7-5.6,21-4.5
						c0,0.2,0,0.4-0.2,0.5c-6.5,0.4-15.6,2.9-20.8,7.5c0.7,0.7,0.4,0.2,1.1,1.3c3.2,0.2,2.9-2.7,6.8,0c2.2,1.3,3.2,1.3,4.1-0.2
						c2.7-4.3,4.3-0.5,6.1-1.6c1.3-1.4,1.1-2.7,2.7-3.2c1.3-0.2,2.2,0.9,3.2-0.2c1.1-0.4,0.5-1.6,1.4-2.3c0.7-1.6,1.4-1.3,2.3-2
						c1.1-1.3,0.9-2.9-2.7-3C288.4,193,290.6,191.4,287.5,191z"/>
					<path d="M287.6,191.4c-0.5,0.1-0.8,0.3-1,0.5c-0.6,0.5-1.1,0.8-2.8,0.3l0,0c-0.7-0.2-1.1-0.6-1.5-0.9c-0.5-0.5-1-0.9-2.3-0.7
						c-0.7,0.4-1,0.7-1.2,1c-0.4,0.5-0.7,0.9-1.9,1.1l0,0c-0.7,0.1-1.1-0.2-1.6-0.5c-0.5-0.3-1-0.7-2-0.6c-0.6,0.1-1,1.3-1.4,2.4
						c-0.3,0.7-0.5,1.5-0.8,2c-0.3,0.9-1.4,1.4-2.5,1.8c-0.9,0.3-1.8,0.7-1.8,1.1c0,0.1,0,1.5,0.5,1.3l0,0l0,0
						c1.3-0.4,2.8-0.9,4.3-1.5c4.8-1.8,10.5-3.8,16.8-3l0.3,0v0.3c0,0.2,0,0.5-0.3,0.8l-0.1,0.1l-0.1,0c-3.5,0.2-7.7,1-11.7,2.5
						c-3.2,1.2-6.3,2.8-8.6,4.8c0.1,0.1,0.1,0.1,0.2,0.1c0.1,0.1,0.1,0.1,0.2,0.2c0.1,0.1,0.2,0.2,0.4,0.6c1.1,0,1.7-0.3,2.3-0.6
						c1.1-0.6,2-1.1,4.5,0.7c1,0.6,1.8,0.9,2.4,0.9c0.5,0,0.9-0.3,1.3-0.9c1.8-3,3.3-2.4,4.5-1.9c0.6,0.2,1.1,0.5,1.6,0.2
						c0.4-0.5,0.7-1,0.9-1.4c0.4-0.8,0.8-1.5,1.9-1.8l0,0l0,0c0.5-0.1,1,0,1.4,0.2c0.6,0.1,1.1,0.3,1.6-0.2l0.1-0.1l0.1,0
						c0.4-0.1,0.5-0.5,0.6-0.9c0.1-0.5,0.2-0.9,0.7-1.3c0.5-1.1,1-1.4,1.6-1.6c0.2-0.1,0.5-0.2,0.7-0.4c0.2-0.2,0.4-0.5,0.4-0.8
						c0.1-0.2,0.1-0.5,0-0.7v0c-0.1-0.2-0.3-0.4-0.7-0.6c-0.5-0.2-1.2-0.4-2.2-0.4v0c-2.3,0-2.7-0.5-3.1-1.1
						C289,191.9,288.8,191.5,287.6,191.4L287.6,191.4z M286.1,191.4c0.3-0.3,0.7-0.5,1.3-0.7l0.1,0l0.1,0c1.5,0.2,1.9,0.7,2.2,1.1
						c0.3,0.4,0.6,0.8,2.6,0.8l0,0c1.1,0.1,1.9,0.2,2.4,0.5c0.5,0.2,0.8,0.6,1,0.9h0c0.2,0.4,0.2,0.8,0.1,1.2
						c-0.1,0.3-0.3,0.7-0.6,1l0,0l0,0c-0.3,0.3-0.6,0.4-0.9,0.5c-0.5,0.2-0.9,0.4-1.3,1.3l0,0.1l-0.1,0c-0.3,0.3-0.4,0.7-0.5,1
						c-0.1,0.6-0.3,1.1-0.9,1.3c-0.8,0.7-1.4,0.6-2.2,0.4c-0.4-0.1-0.7-0.2-1.2-0.1c-0.8,0.3-1.1,0.8-1.5,1.5c-0.2,0.5-0.5,1-1,1.6
						l0,0l0,0c-0.8,0.5-1.5,0.2-2.2-0.1c-1-0.4-2.2-0.9-3.7,1.6c-0.5,0.8-1.1,1.2-1.9,1.3c-0.7,0-1.6-0.3-2.7-1l0,0
						c-2.3-1.5-3-1.1-3.9-0.6c-0.7,0.4-1.4,0.8-2.8,0.7l-0.2,0l-0.1-0.1l0,0l0,0c-0.3-0.4-0.4-0.6-0.5-0.7c0,0-0.1-0.1-0.1-0.1
						c-0.1-0.1-0.2-0.2-0.5-0.4l-0.2-0.2l0.3-0.2c2.4-2.2,5.7-3.9,9.1-5.1c3.9-1.4,8-2.2,11.4-2.5c-5.9-0.6-11.3,1.4-15.8,3.1
						c-1.5,0.6-3,1.1-4.3,1.5c-1.3,0.5-1.3-1.7-1.3-1.9c0-0.9,1.1-1.3,2.2-1.8c1-0.4,2-0.7,2.1-1.4l0-0.1l0,0
						c0.3-0.5,0.6-1.2,0.8-1.9c0.5-1.4,0.9-2.7,1.9-2.9l0,0c1.2-0.1,1.8,0.3,2.4,0.7c0.4,0.2,0.7,0.5,1.2,0.4l0,0
						c1-0.2,1.2-0.5,1.5-0.9c0.3-0.4,0.6-0.8,1.5-1.3l0,0l0,0c1.6-0.2,2.2,0.3,2.9,0.8c0.3,0.3,0.7,0.6,1.2,0.8v0
						C285.3,192,285.7,191.7,286.1,191.4z"/>
				</g>
			</g>
			<g>
				<path d="M192,215.8l-4.9,20.5l-0.1,0.2l-0.2-0.1l-3.9-1.7l-0.1-0.1l0-0.2l3.3-12.3l0,0c0.1-0.3,0.1-0.5,0.2-0.8
					c0.1-0.3,0.2-0.5,0.2-0.8h0c0.1-0.2,0.1-0.3,0.2-0.5c-0.1,0.1-0.2,0.2-0.3,0.4l0,0c-0.2,0.2-0.4,0.5-0.6,0.7
					c-0.2,0.2-0.4,0.5-0.6,0.7l0,0l-9.2,9.8l-0.1,0.1l-0.1-0.1l-2.9-1.2l-0.1-0.1l0-0.1l0.7-13.4c0-0.3,0-0.6,0.1-0.9
					c0-0.3,0.1-0.6,0.1-0.9c0-0.2,0-0.4,0.1-0.6c-0.1,0.1-0.1,0.3-0.2,0.4l0,0c-0.1,0.3-0.3,0.5-0.4,0.8c-0.1,0.3-0.3,0.5-0.5,0.8
					l0,0l-6.6,10.9l-0.1,0.1l-0.1-0.1l-3.9-1.7l-0.2-0.1l0.1-0.2l11.4-17.8l0.1-0.1l0.1,0.1l4.3,1.8l0.1,0.1l0,0.1l-0.6,13v0
					c0,0.3,0,0.5-0.1,0.8c0,0.3-0.1,0.6-0.1,0.8c0,0.3-0.1,0.6-0.1,0.8c0.2-0.2,0.3-0.5,0.5-0.7l0,0c0.2-0.2,0.4-0.4,0.5-0.7
					c0.2-0.2,0.4-0.4,0.6-0.6l8.9-9.4l0.1-0.1l0.1,0.1l4.2,1.8l0.1,0.1L192,215.8L192,215.8z M223.8,223c0.2,0.6,0.2,1.2,0.2,1.9
					c0,0.7-0.1,1.4-0.2,2c-0.2,0.6-0.4,1.2-0.7,1.7v0c-0.3,0.5-0.7,0.9-1.2,1.3c-0.5,0.4-1,0.7-1.6,1c-0.6,0.3-1.3,0.4-2.1,0.6
					c-0.8,0.1-1.6,0.2-2.5,0.2v0h-4.4v7.8v0.2h-0.2h-4.7h-0.2v-0.2v-20.8v-0.2h0.2h9.7v0c0.9,0,1.7,0.1,2.4,0.2
					c0.7,0.1,1.4,0.3,2,0.6c0.6,0.2,1.1,0.6,1.6,0.9c0.5,0.4,0.8,0.8,1.1,1.3C223.4,221.8,223.7,222.4,223.8,223L223.8,223z
					 M218.7,225.8c0-0.2,0.1-0.5,0.1-0.8c0-0.3,0-0.6-0.1-0.8c0-0.2-0.1-0.4-0.2-0.6c-0.1-0.2-0.2-0.3-0.4-0.5
					c-0.1-0.1-0.3-0.2-0.5-0.3l0,0c-0.2-0.1-0.4-0.2-0.7-0.2c-0.3-0.1-0.5-0.1-0.9-0.1h0c-0.3,0-0.7-0.1-1.1-0.1c-0.4,0-0.8,0-1.2,0
					l0,0h-2.4v5.4h2.4l0,0c0.4,0,0.8,0,1.2,0c0.4,0,0.7-0.1,1-0.1h0c0.3,0,0.6-0.1,0.9-0.2c0.3-0.1,0.5-0.2,0.7-0.3v0
					c0.2-0.1,0.4-0.2,0.5-0.3c0.1-0.1,0.3-0.3,0.4-0.5l0,0C218.6,226.2,218.7,226,218.7,225.8L218.7,225.8z M248.2,220.2l13.6,5.5
					l0.4,0.2l-0.4,0.2l-5.6,2.6l-0.1,0l-0.1,0l-12-5.1l4,8.7l0.1,0.2l-0.2,0.1l-4.4,2l-0.2,0.1l-0.1-0.2l-8.8-18.9l-0.1-0.2l0.2-0.1
					l4.4-2l0.2-0.1l0.1,0.2l3.9,8.3l3.8-12.1l0-0.1l0.1,0l5.1-2.4l0.4-0.2l-0.1,0.4L248.2,220.2L248.2,220.2z M192.7,216l0.2-0.8
					l-0.7-0.3l-4.2-1.8l-0.6-0.3l-0.4,0.5l-8.9,9.4h0l0,0v0l0.6-13l0-0.6l-0.6-0.3l-4.3-1.8l-0.7-0.3l-0.4,0.7l-11.4,17.8l-0.6,0.9
					l1,0.4l3.9,1.7l0.7,0.3l0.4-0.7l6-10l-0.6,12.5l0,0.6l0.6,0.3l2.9,1.2l0.6,0.3l0.4-0.5l8.5-9l-3,11.2l-0.2,0.8l0.7,0.3l3.9,1.7
					l1,0.4l0.3-1.1L192.7,216L192.7,216z M224.5,222.8c-0.2-0.7-0.4-1.3-0.8-1.8c-0.3-0.5-0.8-1-1.3-1.5c-0.5-0.4-1.1-0.8-1.7-1
					c-0.6-0.3-1.4-0.5-2.1-0.6c-0.8-0.1-1.6-0.2-2.5-0.2v0h-9.7h-0.9v0.9v20.8v0.9h0.9h4.7h0.9v-0.9v-7.1h3.6v0c1,0,1.8-0.1,2.6-0.2
					c0.8-0.1,1.6-0.3,2.2-0.6c0.7-0.3,1.3-0.6,1.8-1.1l0,0c0.5-0.4,1-0.9,1.3-1.5v0c0.4-0.6,0.6-1.2,0.8-1.9
					c0.2-0.7,0.3-1.4,0.3-2.2C224.8,224.1,224.7,223.4,224.5,222.8L224.5,222.8z M218,225.6c0-0.2,0.1-0.4,0.1-0.6
					c0-0.3,0-0.5-0.1-0.7c0-0.2-0.1-0.3-0.1-0.4c-0.1-0.1-0.1-0.2-0.2-0.3c-0.1-0.1-0.2-0.2-0.3-0.2v0c-0.2-0.1-0.4-0.1-0.6-0.2
					c-0.2-0.1-0.5-0.1-0.8-0.1h0c-0.3,0-0.7-0.1-1-0.1c-0.4,0-0.8,0-1.2,0l0,0h-1.7v3.9h1.7l0,0c0.4,0,0.8,0,1.2,0
					c0.4,0,0.7,0,1-0.1h0c0.3,0,0.5-0.1,0.8-0.1c0.2-0.1,0.4-0.1,0.6-0.2l0,0c0.1-0.1,0.3-0.1,0.4-0.2c0.1-0.1,0.2-0.2,0.2-0.3l0,0
					C217.9,225.9,218,225.8,218,225.6L218,225.6z M249.1,219.8l4-12.2l0.7-2l-1.9,0.9l-5.1,2.4l-0.4,0.2l-0.1,0.4l-3.2,10.3
					l-3.1-6.6l-0.4-0.8l-0.8,0.4l-4.4,2l-0.8,0.4l0.4,0.8l8.8,18.9l0.4,0.8l0.8-0.4l4.4-2l0.8-0.4l-0.4-0.8l-3.2-6.9l10.2,4.3
					l0.4,0.2l0.4-0.2l5.6-2.6l1.9-0.9l-2-0.8L249.1,219.8z"/>
				<path class="st7" d="M192,215.8l-4.9,20.5l-0.1,0.2l-0.2-0.1l-3.9-1.7l-0.1-0.1l0-0.2l3.3-12.3l0,0c0.1-0.3,0.1-0.5,0.2-0.8
					c0.1-0.3,0.2-0.5,0.2-0.8h0c0.1-0.2,0.1-0.3,0.2-0.5c-0.1,0.1-0.2,0.2-0.3,0.4l0,0c-0.2,0.2-0.4,0.5-0.6,0.7
					c-0.2,0.2-0.4,0.5-0.6,0.7l0,0l-9.2,9.8l-0.1,0.1l-0.1-0.1l-2.9-1.2l-0.1-0.1l0-0.1l0.7-13.4c0-0.3,0-0.6,0.1-0.9
					c0-0.3,0.1-0.6,0.1-0.9c0-0.2,0-0.4,0.1-0.6c-0.1,0.1-0.1,0.3-0.2,0.4l0,0c-0.1,0.3-0.3,0.5-0.4,0.8c-0.1,0.3-0.3,0.5-0.5,0.8
					l0,0l-6.6,10.9l-0.1,0.1l-0.1-0.1l-3.9-1.7l-0.2-0.1l0.1-0.2l11.4-17.8l0.1-0.1l0.1,0.1l4.3,1.8l0.1,0.1l0,0.1l-0.6,13v0
					c0,0.3,0,0.5-0.1,0.8c0,0.3-0.1,0.6-0.1,0.8c0,0.3-0.1,0.6-0.1,0.8c0.2-0.2,0.3-0.5,0.5-0.7l0,0c0.2-0.2,0.4-0.4,0.5-0.7
					c0.2-0.2,0.4-0.4,0.6-0.6l8.9-9.4l0.1-0.1l0.1,0.1l4.2,1.8l0.1,0.1L192,215.8L192,215.8z M223.8,223c0.2,0.6,0.2,1.2,0.2,1.9
					c0,0.7-0.1,1.4-0.2,2c-0.2,0.6-0.4,1.2-0.7,1.7v0c-0.3,0.5-0.7,0.9-1.2,1.3c-0.5,0.4-1,0.7-1.6,1c-0.6,0.3-1.3,0.4-2.1,0.6
					c-0.8,0.1-1.6,0.2-2.5,0.2v0h-4.4v7.8v0.2h-0.2h-4.7h-0.2v-0.2v-20.8v-0.2h0.2h9.7v0c0.9,0,1.7,0.1,2.4,0.2
					c0.7,0.1,1.4,0.3,2,0.6c0.6,0.2,1.1,0.6,1.6,0.9c0.5,0.4,0.8,0.8,1.1,1.3C223.4,221.8,223.7,222.4,223.8,223L223.8,223z
					 M218.7,225.8c0-0.2,0.1-0.5,0.1-0.8c0-0.3,0-0.6-0.1-0.8c0-0.2-0.1-0.4-0.2-0.6c-0.1-0.2-0.2-0.3-0.4-0.5
					c-0.1-0.1-0.3-0.2-0.5-0.3l0,0c-0.2-0.1-0.4-0.2-0.7-0.2c-0.3-0.1-0.5-0.1-0.9-0.1h0c-0.3,0-0.7-0.1-1.1-0.1c-0.4,0-0.8,0-1.2,0
					l0,0h-2.4v5.4h2.4l0,0c0.4,0,0.8,0,1.2,0c0.4,0,0.7-0.1,1-0.1h0c0.3,0,0.6-0.1,0.9-0.2c0.3-0.1,0.5-0.2,0.7-0.3v0
					c0.2-0.1,0.4-0.2,0.5-0.3c0.1-0.1,0.3-0.3,0.4-0.5l0,0C218.6,226.2,218.7,226,218.7,225.8L218.7,225.8z M248.2,220.2l13.6,5.5
					l0.4,0.2l-0.4,0.2l-5.6,2.6l-0.1,0l-0.1,0l-12-5.1l4,8.7l0.1,0.2l-0.2,0.1l-4.4,2l-0.2,0.1l-0.1-0.2l-8.8-18.9l-0.1-0.2l0.2-0.1
					l4.4-2l0.2-0.1l0.1,0.2l3.9,8.3l3.8-12.1l0-0.1l0.1,0l5.1-2.4l0.4-0.2l-0.1,0.4L248.2,220.2z"/>
			</g>
		</g>
	</g>
</g>
</svg>
